<?xml version="1.0" encoding="UTF-8" standalone="no"?><svg width="25" height="26" viewBox="0 0 25 26" fill="none" xmlns="http://www.w3.org/2000/svg">
<path d="M5.90918 20.3572C5.90918 21.356 6.74286 22.1657 7.77124 22.1657H17.0826C18.111 22.1657 18.9447 21.356 18.9447 20.3572V19.5087H5.90918L5.90918 20.3572Z" fill="url(#paint0_linear_288_1057)"/>
<path d="M17.0718 9.21851C17.0718 9.21851 18.4124 6.81576 17.9557 5.65336L18.8696 4.81121H19.6034C20.2853 6.88967 18.4165 10.575 18.4165 10.575L17.0718 9.21851Z" fill="url(#paint1_linear_288_1057)"/>
<path d="M16.3445 9.0122H14.4824C14.4824 6.22383 16.6433 4.03979 17.9741 4.03979C18.9434 4.03979 19.6036 4.81104 19.6036 4.81104C18.8347 4.81104 16.3445 7.20071 16.3445 9.0122V9.0122Z" fill="url(#paint2_linear_288_1057)"/>
<path d="M7.799 9.21851C7.799 9.21851 6.45838 6.81577 6.91509 5.65336L6.00115 4.81121H5.2674C4.58544 6.88917 6.45424 10.5745 6.45424 10.5745L7.799 9.21851Z" fill="url(#paint3_linear_288_1057)"/>
<path d="M8.52622 9.0122H10.3883C10.3883 6.22383 8.22744 4.03979 6.89666 4.03979C5.92731 4.03979 5.26709 4.81104 5.26709 4.81104C6.03656 4.81104 8.52622 7.20071 8.52622 9.0122L8.52622 9.0122Z" fill="url(#paint4_linear_288_1057)"/>
<path d="M12.4274 8.30095C10.8869 8.30095 9.63379 7.28686 9.63379 6.04049C9.63379 4.79412 10.8869 3.78053 12.4274 3.78053C13.9679 3.78053 15.221 4.79462 15.221 6.04099C15.221 7.28736 13.9679 8.30095 12.4274 8.30095ZM12.4274 4.68452C11.4001 4.68452 10.5653 5.29287 10.5653 6.04049C10.5653 6.78811 11.4001 7.39697 12.4274 7.39697C13.4548 7.39697 14.2895 6.78861 14.2895 6.04099C14.2895 5.29337 13.4548 4.68452 12.4274 4.68452Z" fill="url(#paint5_linear_288_1057)"/>
<path d="M6.60788 19.7279H5.31541C4.74323 19.7279 4.27979 19.278 4.27979 18.7224V14.8566C4.27979 14.301 4.74323 13.851 5.31541 13.851H6.60788V19.7279Z" fill="url(#paint6_linear_288_1057)"/>
<path d="M18.2476 19.7279H19.54C20.1122 19.7279 20.5757 19.278 20.5757 18.7224V14.8566C20.5757 14.301 20.1122 13.851 19.54 13.851H18.2476V19.7279Z" fill="url(#paint7_linear_288_1057)"/>
<path d="M18.9457 20.3569H5.90918V10.761C5.90918 7.84142 8.34706 5.47438 11.354 5.47438H13.5009C16.5078 5.47438 18.9457 7.84142 18.9457 10.761V20.3569Z" fill="url(#paint8_linear_288_1057)"/>
<path d="M18.2474 13.1879H17.7819V10.8993C17.7819 8.53122 15.7976 6.60461 13.3587 6.60461H11.4966C9.05769 6.60461 7.07343 8.53123 7.07343 10.8993V13.1879H6.60791V10.8993C6.60791 8.28185 8.80086 6.15261 11.4966 6.15261H13.3587C16.0544 6.15261 18.2474 8.28185 18.2474 10.8993V13.1879Z" fill="#404040"/>
<path d="M13.1274 6.33082C13.1124 6.22863 13.0223 6.15261 12.9161 6.15261H12.8846C12.7779 6.15261 12.6878 6.22863 12.6733 6.33132L12.5371 7.2742C12.519 7.39904 12.6189 7.5108 12.7484 7.5108H13.0549C13.1849 7.5108 13.2848 7.39904 13.2662 7.27369L13.1274 6.33082ZM13.0202 7.33612H12.7841C12.7411 7.33612 12.708 7.29383 12.7126 7.2455L12.7359 7.00236C12.7401 6.96108 12.7706 6.92937 12.8074 6.92937H12.9954C13.0316 6.92937 13.0627 6.96058 13.0668 7.00186L13.0917 7.245C13.0963 7.29333 13.0632 7.33612 13.0202 7.33612ZM12.1803 6.33082C12.1653 6.22863 12.0752 6.15261 11.9691 6.15261H11.9375C11.8308 6.15261 11.7407 6.22863 11.7262 6.33132L11.59 7.2742C11.5719 7.39904 11.6718 7.5108 11.8013 7.5108H12.1078C12.2378 7.5108 12.3377 7.39904 12.3191 7.27369L12.1803 6.33082ZM12.0737 7.33612H11.8375C11.7946 7.33612 11.7614 7.29383 11.7661 7.2455L11.7894 7.00236C11.7935 6.96108 11.8241 6.92937 11.8608 6.92937H12.0488C12.0851 6.92937 12.1161 6.96058 12.1203 7.00186L12.1451 7.245C12.1498 7.29333 12.1166 7.33612 12.0737 7.33612H12.0737Z" fill="url(#paint9_linear_288_1057)"/>
<path d="M15.9956 19.5087H8.86009C8.00207 19.5087 7.30664 18.8335 7.30664 18.0004V15.1402C7.30664 14.3071 8.00207 13.6318 8.86009 13.6318H15.9956C16.8536 13.6318 17.549 14.3071 17.549 15.1402V18.0004C17.549 18.8335 16.8536 19.5087 15.9956 19.5087Z" fill="url(#paint10_linear_288_1057)"/>
<path d="M16.6176 14.9883H8.2373V15.4407H16.6176V14.9883Z" fill="#404040"/>
<path d="M16.7814 15.1665C16.7664 15.0643 16.6763 14.9883 16.5701 14.9883H16.5385C16.4319 14.9883 16.3418 15.0643 16.3273 15.167L16.1911 16.1099C16.173 16.2348 16.2729 16.3465 16.4024 16.3465H16.7089C16.8389 16.3465 16.9388 16.2348 16.9202 16.1094L16.7814 15.1665ZM16.6747 16.1713H16.4386C16.3956 16.1713 16.3625 16.129 16.3671 16.0807L16.3905 15.8376C16.3946 15.7963 16.4251 15.7646 16.4619 15.7646H16.6499C16.6861 15.7646 16.7172 15.7958 16.7213 15.8371L16.7462 16.0802C16.7508 16.1285 16.7177 16.1713 16.6747 16.1713H16.6747Z" fill="url(#paint11_linear_288_1057)"/>
<path d="M13.4562 9.37716L12.6846 8.62779C12.5427 8.48999 12.3123 8.48999 12.1704 8.62779L11.3989 9.37716C11.257 9.51496 11.257 9.73876 11.3989 9.87657L12.1704 10.6259C12.3123 10.7637 12.5427 10.7637 12.6846 10.6259L13.4562 9.87657C13.5986 9.73876 13.5986 9.51496 13.4562 9.37716ZM12.2238 9.97967C12.2238 10.0717 12.1471 10.1461 12.0524 10.1461C11.9576 10.1461 11.881 10.0717 11.881 9.97967V9.27406C11.881 9.18202 11.9576 9.10758 12.0524 9.10758C12.1471 9.10758 12.2238 9.18202 12.2238 9.27406V9.97967ZM12.9586 9.97967C12.9586 10.0717 12.8819 10.1461 12.7872 10.1461C12.6924 10.1461 12.6158 10.0717 12.6158 9.97967V9.27406C12.6158 9.18202 12.6924 9.10758 12.7872 9.10758C12.8819 9.10758 12.9586 9.18202 12.9586 9.27406V9.97967Z" fill="url(#paint12_linear_288_1057)"/>
<defs>
<linearGradient id="paint0_linear_288_1057" x1="12.4274" y1="22.2467" x2="12.4274" y2="18.6583" gradientUnits="userSpaceOnUse">
<stop stop-color="#262C30"/>
<stop offset="0.193" stop-color="#2F3538"/>
<stop offset="0.511" stop-color="#484C4E"/>
<stop offset="0.913" stop-color="#707171"/>
<stop offset="1" stop-color="#7A7A7A"/>
</linearGradient>
<linearGradient id="paint1_linear_288_1057" x1="16.7285" y1="11.2517" x2="18.752" y2="6.63726" gradientUnits="userSpaceOnUse">
<stop stop-color="#FF511C"/>
<stop offset="0.133" stop-color="#EA4715"/>
<stop offset="0.354" stop-color="#CD3A0C"/>
<stop offset="0.573" stop-color="#B93005"/>
<stop offset="0.79" stop-color="#AC2A01"/>
<stop offset="1" stop-color="#A82800"/>
</linearGradient>
<linearGradient id="paint2_linear_288_1057" x1="17.0565" y1="3.06391" x2="17.0248" y2="12.6055" gradientUnits="userSpaceOnUse">
<stop stop-color="#FF511C"/>
<stop offset="0.133" stop-color="#EA4715"/>
<stop offset="0.354" stop-color="#CD3A0C"/>
<stop offset="0.573" stop-color="#B93005"/>
<stop offset="0.79" stop-color="#AC2A01"/>
<stop offset="1" stop-color="#A82800"/>
</linearGradient>
<linearGradient id="paint3_linear_288_1057" x1="8.14232" y1="11.2517" x2="6.11927" y2="6.63728" gradientUnits="userSpaceOnUse">
<stop stop-color="#FF511C"/>
<stop offset="0.133" stop-color="#EA4715"/>
<stop offset="0.354" stop-color="#CD3A0C"/>
<stop offset="0.573" stop-color="#B93005"/>
<stop offset="0.79" stop-color="#AC2A01"/>
<stop offset="1" stop-color="#A82800"/>
</linearGradient>
<linearGradient id="paint4_linear_288_1057" x1="7.81423" y1="3.02067" x2="7.84596" y2="12.5623" gradientUnits="userSpaceOnUse">
<stop stop-color="#FF511C"/>
<stop offset="0.133" stop-color="#EA4715"/>
<stop offset="0.354" stop-color="#CD3A0C"/>
<stop offset="0.573" stop-color="#B93005"/>
<stop offset="0.79" stop-color="#AC2A01"/>
<stop offset="1" stop-color="#A82800"/>
</linearGradient>
<linearGradient id="paint5_linear_288_1057" x1="12.2917" y1="8.02442" x2="12.6423" y2="2.58006" gradientUnits="userSpaceOnUse">
<stop stop-color="#262C30"/>
<stop offset="0.19" stop-color="#2E3437"/>
<stop offset="0.49" stop-color="#45494C"/>
<stop offset="0.862" stop-color="#6A6C6C"/>
<stop offset="1" stop-color="#7A7A7A"/>
</linearGradient>
<linearGradient id="paint6_linear_288_1057" x1="5.44383" y1="12.1637" x2="5.44383" y2="25.0387" gradientUnits="userSpaceOnUse">
<stop stop-color="#FF511C"/>
<stop offset="0.133" stop-color="#EA4715"/>
<stop offset="0.354" stop-color="#CD3A0C"/>
<stop offset="0.573" stop-color="#B93005"/>
<stop offset="0.79" stop-color="#AC2A01"/>
<stop offset="1" stop-color="#A82800"/>
</linearGradient>
<linearGradient id="paint7_linear_288_1057" x1="19.4116" y1="12.1637" x2="19.4116" y2="25.0387" gradientUnits="userSpaceOnUse">
<stop stop-color="#FF511C"/>
<stop offset="0.133" stop-color="#EA4715"/>
<stop offset="0.354" stop-color="#CD3A0C"/>
<stop offset="0.573" stop-color="#B93005"/>
<stop offset="0.79" stop-color="#AC2A01"/>
<stop offset="1" stop-color="#A82800"/>
</linearGradient>
<linearGradient id="paint8_linear_288_1057" x1="12.4274" y1="5.47438" x2="12.4274" y2="22.7305" gradientUnits="userSpaceOnUse">
<stop stop-color="#FF511C"/>
<stop offset="0.025" stop-color="#FC501B"/>
<stop offset="0.692" stop-color="#B13008"/>
<stop offset="1" stop-color="#942300"/>
</linearGradient>
<linearGradient id="paint9_linear_288_1057" x1="12.4278" y1="5.51178" x2="12.4278" y2="8.84985" gradientUnits="userSpaceOnUse">
<stop stop-color="#D4EEFF"/>
<stop offset="0.236" stop-color="#B5CFE1"/>
<stop offset="0.752" stop-color="#658194"/>
<stop offset="0.953" stop-color="#446175"/>
</linearGradient>
<linearGradient id="paint10_linear_288_1057" x1="12.4278" y1="12.9244" x2="12.4278" y2="21.7451" gradientUnits="userSpaceOnUse">
<stop stop-color="#FF511C"/>
<stop offset="0.251" stop-color="#E34211"/>
<stop offset="0.518" stop-color="#CC3607"/>
<stop offset="0.771" stop-color="#BF2E02"/>
<stop offset="0.995" stop-color="#BA2C00"/>
</linearGradient>
<linearGradient id="paint11_linear_288_1057" x1="16.5556" y1="13.9332" x2="16.5556" y2="17.9937" gradientUnits="userSpaceOnUse">
<stop stop-color="#D4EEFF"/>
<stop offset="0.236" stop-color="#B5CFE1"/>
<stop offset="0.752" stop-color="#658194"/>
<stop offset="0.953" stop-color="#446175"/>
</linearGradient>
<linearGradient id="paint12_linear_288_1057" x1="12.4278" y1="7.01992" x2="12.4278" y2="10.467" gradientUnits="userSpaceOnUse">
<stop stop-color="#F5F5F5"/>
<stop offset="0.227" stop-color="#E9E8E7"/>
<stop offset="0.654" stop-color="#C9C6C2"/>
<stop offset="1" stop-color="#ABA6A0"/>
</linearGradient>
</defs>
</svg>
