<?xml version="1.0" encoding="UTF-8" standalone="no"?><svg width="30" height="30" viewBox="0 0 30 30" fill="none" xmlns="http://www.w3.org/2000/svg">
<path opacity="0.4" d="M25 12.2998C25.6875 12.2998 26.25 12.8623 26.25 13.5498V21.2498C26.25 24.9998 24.375 27.4998 20 27.4998H10C5.625 27.4998 3.75 24.9998 3.75 21.2498V13.5498C3.75 12.8623 4.3125 12.2998 5 12.2998H25Z" fill="white"/>
<path d="M20.9375 4.45V2.5C20.9375 1.9875 20.5126 1.5625 20 1.5625C19.4876 1.5625 19.0626 1.9875 19.0626 2.5V4.375H10.9376V2.5C10.9376 1.9875 10.5126 1.5625 10.0001 1.5625C9.48755 1.5625 9.06255 1.9875 9.06255 2.5V4.45C5.68755 4.7625 4.05004 6.775 3.80004 9.7625C3.77504 10.125 4.07504 10.425 4.42504 10.425H25.5751C25.9376 10.425 26.2376 10.1125 26.2001 9.7625C25.9501 6.775 24.3125 4.7625 20.9375 4.45Z" fill="white"/>
<path d="M19.575 23.0875L18.65 22.1625C19.125 21.4375 19.4125 20.5625 19.4125 19.625C19.4125 17.075 17.3375 15 14.7875 15C12.2375 15 10.1625 17.075 10.1625 19.625C10.1625 22.175 12.2375 24.25 14.7875 24.25C15.725 24.25 16.6 23.9625 17.325 23.4875L18.25 24.4125C18.4375 24.6 18.675 24.6875 18.9125 24.6875C19.15 24.6875 19.3875 24.6 19.575 24.4125C19.9375 24.05 19.9375 23.45 19.575 23.0875Z" fill="white"/>
</svg>
