<?xml version="1.0" encoding="UTF-8" standalone="no"?><svg width="30" height="30" viewBox="0 0 30 30" fill="none" xmlns="http://www.w3.org/2000/svg">
<path d="M20.9375 4.45V2.5C20.9375 1.9875 20.5125 1.5625 20 1.5625C19.4875 1.5625 19.0625 1.9875 19.0625 2.5V4.375H10.9375V2.5C10.9375 1.9875 10.5125 1.5625 10 1.5625C9.4875 1.5625 9.0625 1.9875 9.0625 2.5V4.45C5.6875 4.7625 4.05 6.775 3.8 9.7625C3.775 10.125 4.075 10.425 4.425 10.425H25.575C25.9375 10.425 26.2375 10.1125 26.2 9.7625C25.95 6.775 24.3125 4.7625 20.9375 4.45Z" fill="white"/>
<path opacity="0.4" d="M26.25 13.5501V15.7251C26.25 16.4876 25.575 17.0751 24.825 16.9501C24.475 16.9001 24.1125 16.8626 23.75 16.8626C19.9625 16.8626 16.875 19.9501 16.875 23.7376C16.875 24.3126 17.1 25.1126 17.3375 25.8376C17.6125 26.6501 17.0125 27.4876 16.15 27.4876H10C5.625 27.4876 3.75 24.9876 3.75 21.2376V13.5376C3.75 12.8501 4.3125 12.2876 5 12.2876H25C25.6875 12.3001 26.25 12.8626 26.25 13.5501Z" fill="white"/>
<path d="M23.75 18.75C20.9875 18.75 18.75 20.9875 18.75 23.75C18.75 24.6875 19.0125 25.575 19.475 26.325C20.3375 27.775 21.925 28.75 23.75 28.75C25.575 28.75 27.1625 27.775 28.025 26.325C28.4875 25.575 28.75 24.6875 28.75 23.75C28.75 20.9875 26.5125 18.75 23.75 18.75ZM26.3375 23.2125L23.675 25.675C23.5 25.8375 23.2625 25.925 23.0375 25.925C22.8 25.925 22.5625 25.8375 22.375 25.65L21.1375 24.4125C20.775 24.05 20.775 23.45 21.1375 23.0875C21.5 22.725 22.1 22.725 22.4625 23.0875L23.0625 23.6875L25.0625 21.8375C25.4375 21.4875 26.0375 21.5125 26.3875 21.8875C26.7375 22.2625 26.7125 22.85 26.3375 23.2125Z" fill="white"/>
<path d="M10.625 18.7499C10.3 18.7499 9.975 18.6124 9.7375 18.3874C9.5125 18.1499 9.375 17.8249 9.375 17.4999C9.375 17.1749 9.5125 16.8499 9.7375 16.6124C10.025 16.3249 10.4625 16.1874 10.875 16.2749C10.95 16.2874 11.025 16.3124 11.1 16.3499C11.175 16.3749 11.25 16.4124 11.325 16.4624C11.3875 16.5124 11.45 16.5624 11.5125 16.6124C11.7375 16.8499 11.875 17.1749 11.875 17.4999C11.875 17.8249 11.7375 18.1499 11.5125 18.3874C11.45 18.4374 11.3875 18.4874 11.325 18.5374C11.25 18.5874 11.175 18.6249 11.1 18.6499C11.025 18.6874 10.95 18.7124 10.875 18.7249C10.7875 18.7374 10.7 18.7499 10.625 18.7499Z" fill="white"/>
<path d="M15 18.75C14.675 18.75 14.35 18.6125 14.1125 18.3875C13.8875 18.15 13.75 17.825 13.75 17.5C13.75 17.175 13.8875 16.85 14.1125 16.6125C14.5875 16.15 15.425 16.15 15.8875 16.6125C16.1125 16.85 16.25 17.175 16.25 17.5C16.25 17.825 16.1125 18.15 15.8875 18.3875C15.65 18.6125 15.325 18.75 15 18.75Z" fill="white"/>
<path d="M10.625 23.1251C10.3 23.1251 9.975 22.9876 9.7375 22.7626C9.5125 22.5251 9.375 22.2001 9.375 21.8751C9.375 21.5501 9.5125 21.2251 9.7375 20.9876C9.8625 20.8751 9.9875 20.7876 10.15 20.7251C10.6125 20.5251 11.1625 20.6376 11.5125 20.9876C11.7375 21.2251 11.875 21.5501 11.875 21.8751C11.875 22.2001 11.7375 22.5251 11.5125 22.7626C11.275 22.9876 10.95 23.1251 10.625 23.1251Z" fill="white"/>
</svg>
