<?xml version="1.0" encoding="UTF-8" standalone="no"?><svg width="30" height="30" viewBox="0 0 30 30" fill="none" xmlns="http://www.w3.org/2000/svg">
<path d="M25 8.4375C26.8985 8.4375 28.4375 6.89848 28.4375 5C28.4375 3.10152 26.8985 1.5625 25 1.5625C23.1015 1.5625 21.5625 3.10152 21.5625 5C21.5625 6.89848 23.1015 8.4375 25 8.4375Z" fill="white"/>
<path opacity="0.4" d="M25 10C22.2375 10 20 7.7625 20 5C20 4.0875 20.2625 3.2375 20.7 2.5H8.75C5.3 2.5 2.5 5.2875 2.5 8.725V16.2V17.45C2.5 20.8875 5.3 23.675 8.75 23.675H10.625C10.9625 23.675 11.4125 23.9 11.625 24.175L13.5 26.6625C14.325 27.7625 15.675 27.7625 16.5 26.6625L18.375 24.175C18.6125 23.8625 18.9875 23.675 19.375 23.675H21.25C24.7 23.675 27.5 20.8875 27.5 17.45V9.3C26.7625 9.7375 25.9125 10 25 10Z" fill="white"/>
<path d="M15 15C14.3 15 13.75 14.4375 13.75 13.75C13.75 13.0625 14.3125 12.5 15 12.5C15.6875 12.5 16.25 13.0625 16.25 13.75C16.25 14.4375 15.7 15 15 15Z" fill="white"/>
<path d="M20 15C19.3 15 18.75 14.4375 18.75 13.75C18.75 13.0625 19.3125 12.5 20 12.5C20.6875 12.5 21.25 13.0625 21.25 13.75C21.25 14.4375 20.7 15 20 15Z" fill="white"/>
<path d="M10 15C9.3 15 8.75 14.4375 8.75 13.75C8.75 13.0625 9.3125 12.5 10 12.5C10.6875 12.5 11.25 13.0625 11.25 13.75C11.25 14.4375 10.7 15 10 15Z" fill="white"/>
</svg>
