<?xml version="1.0" encoding="UTF-8" standalone="no"?><svg width="30" height="30" viewBox="0 0 30 30" fill="none" xmlns="http://www.w3.org/2000/svg">
<path d="M15 2.5C8.1075 2.5 2.5 8.1075 2.5 15C2.5 21.2537 7.12125 26.4344 13.125 27.3438V18.125H10.625C10.28 18.125 10 17.8456 10 17.5V15.625C10 15.2794 10.28 15 10.625 15H13.125V12.73C13.125 9.76062 14.6419 8.125 17.3962 8.125C18.5125 8.125 19.3931 8.2025 19.43 8.20562C19.7525 8.23438 20 8.50437 20 8.82812V10.9375C20 11.2831 19.72 11.5625 19.375 11.5625H18.125C17.4356 11.5625 16.875 12.1231 16.875 12.8125V15H19.375C19.5544 15 19.725 15.0769 19.8438 15.2112C19.9625 15.3462 20.0175 15.525 19.9956 15.7025L19.7612 17.5775C19.7219 17.89 19.4556 18.125 19.1406 18.125H16.875V27.3438C22.8787 26.4344 27.5 21.2537 27.5 15C27.5 8.1075 21.8925 2.5 15 2.5Z" fill="white"/>
</svg>
