<?xml version="1.0" encoding="UTF-8" standalone="no"?><svg width="137" height="42" viewBox="0 0 137 42" fill="none" xmlns="http://www.w3.org/2000/svg">
<path d="M68.5939 32.8125V8.58375H76.9545C79.0703 8.58375 80.7993 9.23212 82.1415 10.5289C83.5065 11.8256 84.189 13.4068 84.189 15.2723C84.189 17.2743 83.4383 18.8326 81.9368 19.9474C84.5303 21.0166 85.827 22.939 85.827 25.7145C85.827 27.7393 85.0876 29.4341 83.6089 30.7991C82.1529 32.1414 80.2874 32.8125 78.0124 32.8125H68.5939ZM72.5865 29.1611H77.91C79.184 29.1611 80.1736 28.8426 80.8789 28.2056C81.5841 27.5686 81.9368 26.7269 81.9368 25.6804C81.9368 24.6566 81.5841 23.8263 80.8789 23.1893C80.1736 22.5295 79.184 22.1996 77.91 22.1996H72.5865V29.1611ZM72.5865 18.7871H76.7498C77.819 18.7871 78.6721 18.48 79.3091 17.8658C79.9461 17.2515 80.2646 16.4666 80.2646 15.5111C80.2646 14.6011 79.9461 13.8276 79.3091 13.1906C78.6721 12.5536 77.819 12.2351 76.7498 12.2351H72.5865V18.7871Z" fill="#74818B"/>
<path d="M89.5784 32.8125V7.21875H93.3321V32.8125H89.5784Z" fill="#74818B"/>
<path d="M100.253 12.0304C99.5706 12.0304 98.9791 11.7915 98.4786 11.3137C97.9781 10.8133 97.7278 10.2104 97.7278 9.50513C97.7278 8.82262 97.9781 8.2425 98.4786 7.76475C98.9791 7.26425 99.5706 7.014 100.253 7.014C100.958 7.014 101.55 7.26425 102.028 7.76475C102.505 8.2425 102.744 8.82262 102.744 9.50513C102.744 10.2104 102.505 10.8133 102.028 11.3137C101.55 11.7915 100.958 12.0304 100.253 12.0304ZM98.3762 32.8125V15.75H102.13V32.8125H98.3762Z" fill="#74818B"/>
<path d="M114.579 32.9831C112.85 32.9831 111.44 32.5054 110.348 31.5499C109.278 30.5716 108.744 29.1611 108.744 27.3184V19.0943H105.195V15.75H108.744V11.0066H112.498V15.75H117.377V19.0943H112.498V26.7041C112.498 27.7506 112.725 28.5014 113.18 28.9564C113.635 29.3886 114.363 29.6048 115.364 29.6048C116.183 29.6048 116.854 29.491 117.377 29.2635V32.6078C116.558 32.858 115.626 32.9831 114.579 32.9831Z" fill="#74818B"/>
<path d="M128.416 33.1538C125.823 33.1538 123.684 32.3234 122.001 30.6626C120.34 29.0019 119.51 26.8748 119.51 24.2813C119.51 21.756 120.351 19.6516 122.035 17.9681C123.718 16.2619 125.846 15.4087 128.416 15.4087C130.782 15.4087 132.739 16.1595 134.286 17.661C135.856 19.1625 136.64 21.2328 136.64 23.8718C136.64 24.3268 136.629 24.7363 136.606 25.1003H123.195C123.286 26.488 123.821 27.6141 124.799 28.4786C125.777 29.3204 126.994 29.7413 128.45 29.7413C130.634 29.7413 132.261 28.8768 133.33 27.1478L136.197 29.1953C134.559 31.8343 131.965 33.1538 128.416 33.1538ZM123.366 22.3703H132.853C132.648 21.1873 132.113 20.2659 131.249 19.6061C130.407 18.9236 129.417 18.5824 128.28 18.5824C127.097 18.5824 126.039 18.9123 125.106 19.572C124.196 20.2318 123.616 21.1645 123.366 22.3703Z" fill="#74818B"/>
<path d="M18.2 42C7.92579 40.625 0 31.7887 0 21.0929C0 9.44363 9.40202 0 21 0C32.598 0 42 9.44363 42 21.0929C42 31.7887 34.0742 40.625 23.8 42V27.5389C26.2723 26.4539 28 23.9761 28 21.0929C28 17.2098 24.866 14.062 21 14.062C17.134 14.062 14 17.2098 14 21.0929C14 23.9761 15.7277 26.4539 18.2 27.5389V42Z" fill="#74818B"/>
</svg>
