<?xml version="1.0" encoding="UTF-8" standalone="no"?><svg width="105" height="32" viewBox="0 0 105 32" fill="none" xmlns="http://www.w3.org/2000/svg">
<path d="M52.262 25V6.54H58.632C60.244 6.54 61.5613 7.034 62.584 8.022C63.624 9.01 64.144 10.2147 64.144 11.636C64.144 13.1613 63.572 14.3487 62.428 15.198C64.404 16.0127 65.392 17.4773 65.392 19.592C65.392 21.1347 64.8287 22.426 63.702 23.466C62.5927 24.4887 61.1713 25 59.438 25H52.262ZM55.304 22.218H59.36C60.3307 22.218 61.0847 21.9753 61.622 21.49C62.1593 21.0047 62.428 20.3633 62.428 19.566C62.428 18.786 62.1593 18.1533 61.622 17.668C61.0847 17.1653 60.3307 16.914 59.36 16.914H55.304V22.218ZM55.304 14.314H58.476C59.2907 14.314 59.9407 14.08 60.426 13.612C60.9113 13.144 61.154 12.546 61.154 11.818C61.154 11.1247 60.9113 10.5353 60.426 10.05C59.9407 9.56467 59.2907 9.322 58.476 9.322H55.304V14.314Z" fill="#0080FF"/>
<path d="M68.2502 25V5.5H71.1102V25H68.2502Z" fill="#0080FF"/>
<path d="M76.3833 9.166C75.8633 9.166 75.4126 8.984 75.0313 8.62C74.65 8.23867 74.4593 7.77933 74.4593 7.242C74.4593 6.722 74.65 6.28 75.0313 5.916C75.4126 5.53467 75.8633 5.344 76.3833 5.344C76.9206 5.344 77.3713 5.53467 77.7353 5.916C78.0993 6.28 78.2813 6.722 78.2813 7.242C78.2813 7.77933 78.0993 8.23867 77.7353 8.62C77.3713 8.984 76.9206 9.166 76.3833 9.166ZM74.9533 25V12H77.8133V25H74.9533Z" fill="#0080FF"/>
<path d="M87.2984 25.13C85.9811 25.13 84.9064 24.766 84.0744 24.038C83.2598 23.2927 82.8524 22.218 82.8524 20.814V14.548H80.1484V12H82.8524V8.386H85.7124V12H89.4304V14.548H85.7124V20.346C85.7124 21.1433 85.8858 21.7153 86.2324 22.062C86.5791 22.3913 87.1338 22.556 87.8964 22.556C88.5204 22.556 89.0318 22.4693 89.4304 22.296V24.844C88.8064 25.0347 88.0958 25.13 87.2984 25.13Z" fill="#0080FF"/>
<path d="M97.841 25.26C95.865 25.26 94.2357 24.6273 92.953 23.362C91.6877 22.0967 91.055 20.476 91.055 18.5C91.055 16.576 91.6964 14.9727 92.979 13.69C94.2617 12.39 95.8824 11.74 97.841 11.74C99.6437 11.74 101.134 12.312 102.313 13.456C103.509 14.6 104.107 16.1773 104.107 18.188C104.107 18.5347 104.098 18.8467 104.081 19.124H93.863C93.9324 20.1813 94.3397 21.0393 95.085 21.698C95.8303 22.3393 96.7577 22.66 97.867 22.66C99.531 22.66 100.77 22.0013 101.585 20.684L103.769 22.244C102.521 24.2547 100.545 25.26 97.841 25.26ZM93.993 17.044H101.221C101.065 16.1427 100.658 15.4407 99.999 14.938C99.3577 14.418 98.6037 14.158 97.737 14.158C96.8357 14.158 96.0297 14.4093 95.319 14.912C94.6257 15.4147 94.1837 16.1253 93.993 17.044Z" fill="#0080FF"/>
<path d="M13.8667 32C6.0387 30.9524 0 24.2199 0 16.0708C0 7.19514 7.16344 0 16 0C24.8366 0 32 7.19514 32 16.0708C32 24.2199 25.9613 30.9524 18.1333 32V20.982C20.017 20.1554 21.3333 18.2675 21.3333 16.0708C21.3333 13.1122 18.9455 10.7139 16 10.7139C13.0545 10.7139 10.6667 13.1122 10.6667 16.0708C10.6667 18.2675 11.983 20.1554 13.8667 20.982V32Z" fill="#0080FF"/>
</svg>
