<?xml version="1.0" encoding="UTF-8" standalone="no"?><svg width="30" height="30" viewBox="0 0 30 30" fill="none" xmlns="http://www.w3.org/2000/svg">
<path d="M10.3125 3.125C6.34938 3.125 3.125 6.34938 3.125 10.3125V19.6875C3.125 23.6506 6.34938 26.875 10.3125 26.875H19.6875C23.6506 26.875 26.875 23.6506 26.875 19.6875V10.3125C26.875 6.34938 23.6506 3.125 19.6875 3.125H10.3125ZM21.25 7.5C21.9406 7.5 22.5 8.05937 22.5 8.75C22.5 9.44 21.9406 10 21.25 10C20.5594 10 20 9.44 20 8.75C20 8.05937 20.5594 7.5 21.25 7.5ZM15 8.75C18.4462 8.75 21.25 11.5538 21.25 15C21.25 18.4462 18.4462 21.25 15 21.25C11.5538 21.25 8.75 18.4462 8.75 15C8.75 11.5538 11.5538 8.75 15 8.75ZM15 10.625C14.4255 10.625 13.8566 10.7382 13.3258 10.958C12.795 11.1779 12.3127 11.5002 11.9064 11.9064C11.5002 12.3127 11.1779 12.795 10.958 13.3258C10.7382 13.8566 10.625 14.4255 10.625 15C10.625 15.5745 10.7382 16.1434 10.958 16.6742C11.1779 17.205 11.5002 17.6873 11.9064 18.0936C12.3127 18.4998 12.795 18.8221 13.3258 19.042C13.8566 19.2618 14.4255 19.375 15 19.375C15.5745 19.375 16.1434 19.2618 16.6742 19.042C17.205 18.8221 17.6873 18.4998 18.0936 18.0936C18.4998 17.6873 18.8221 17.205 19.042 16.6742C19.2618 16.1434 19.375 15.5745 19.375 15C19.375 14.4255 19.2618 13.8566 19.042 13.3258C18.8221 12.795 18.4998 12.3127 18.0936 11.9064C17.6873 11.5002 17.205 11.1779 16.6742 10.958C16.1434 10.7382 15.5745 10.625 15 10.625Z" fill="white"/>
</svg>
