<?xml version="1.0" encoding="UTF-8" standalone="no"?><svg width="30" height="30" viewBox="0 0 30 30" fill="none" xmlns="http://www.w3.org/2000/svg">
<path d="M22.8125 3.75H7.1875C5.2925 3.75 3.75 5.2925 3.75 7.1875V22.8125C3.75 24.7075 5.2925 26.25 7.1875 26.25H22.8125C24.7075 26.25 26.25 24.7075 26.25 22.8125V7.1875C26.25 5.2925 24.7075 3.75 22.8125 3.75ZM11.25 21.25C11.25 21.5956 10.9706 21.875 10.625 21.875H8.75C8.40438 21.875 8.125 21.5956 8.125 21.25V13.125C8.125 12.7794 8.40438 12.5 8.75 12.5H10.625C10.9706 12.5 11.25 12.7794 11.25 13.125V21.25ZM9.6875 11.25C8.82438 11.25 8.125 10.5506 8.125 9.6875C8.125 8.82438 8.82438 8.125 9.6875 8.125C10.5506 8.125 11.25 8.82438 11.25 9.6875C11.25 10.5506 10.5506 11.25 9.6875 11.25ZM21.875 21.25C21.875 21.5956 21.5956 21.875 21.25 21.875H19.375C19.0294 21.875 18.75 21.5956 18.75 21.25V16.5625C18.75 15.7006 18.0494 15 17.1875 15C16.3256 15 15.625 15.7006 15.625 16.5625V21.25C15.625 21.5956 15.3456 21.875 15 21.875H13.125C12.7794 21.875 12.5 21.5956 12.5 21.25V13.125C12.5 12.7794 12.7794 12.5 13.125 12.5H15C15.3456 12.5 15.625 12.7794 15.625 13.125V13.4631C16.2894 12.8663 17.1637 12.5 18.125 12.5C20.1931 12.5 21.875 14.1819 21.875 16.25V21.25Z" fill="white"/>
</svg>
