<?xml version="1.0" encoding="UTF-8" standalone="no"?><svg width="494" height="726" viewBox="0 0 494 726" fill="none" xmlns="http://www.w3.org/2000/svg">
<path fill-rule="evenodd" clip-rule="evenodd" d="M285.027 -88C343.985 -88 391.781 -40.2037 391.781 18.7539C391.781 77.7142 343.985 125.508 285.027 125.508C226.07 125.508 178.273 77.7142 178.273 18.7539C178.273 -40.2037 226.07 -88 285.027 -88V-88Z" stroke="url(#paint0_linear_238_1066)"/>
<path fill-rule="evenodd" clip-rule="evenodd" d="M291.5 -83.4303C350.457 -83.4303 398.251 -35.6339 398.251 23.3236C398.251 82.2812 350.457 130.078 291.5 130.078C232.54 130.078 184.746 82.2812 184.746 23.3236C184.746 -35.6339 232.54 -83.4303 291.5 -83.4303V-83.4303Z" stroke="url(#paint1_linear_238_1066)"/>
<path fill-rule="evenodd" clip-rule="evenodd" d="M297.967 -78.8661C356.926 -78.8661 404.722 -31.0697 404.722 27.8878C404.722 86.8481 356.926 134.642 297.969 134.642C239.011 134.642 191.215 86.8481 191.215 27.8878C191.215 -31.0697 239.011 -78.8661 297.969 -78.8661H297.967Z" stroke="url(#paint2_linear_238_1066)"/>
<path fill-rule="evenodd" clip-rule="evenodd" d="M304.438 -74.2964C363.399 -74.2964 411.192 -26.5028 411.192 32.4575C411.192 91.4151 363.399 139.211 304.438 139.211C245.481 139.211 197.684 91.4151 197.684 32.4575C197.684 -26.5028 245.481 -74.2964 304.438 -74.2964V-74.2964Z" stroke="url(#paint3_linear_238_1066)"/>
<path fill-rule="evenodd" clip-rule="evenodd" d="M310.907 -69.7308C369.866 -69.7308 417.662 -21.9344 417.662 37.0231C417.662 95.9807 369.866 143.777 310.908 143.777C251.951 143.777 204.154 95.9807 204.154 37.0231C204.154 -21.9344 251.951 -69.7308 310.908 -69.7308H310.907Z" stroke="url(#paint4_linear_238_1066)"/>
<path fill-rule="evenodd" clip-rule="evenodd" d="M317.378 -65.1638C376.336 -65.1638 424.132 -17.3675 424.132 41.5901C424.132 100.55 376.336 148.344 317.378 148.344C258.421 148.344 210.624 100.55 210.624 41.5901C210.624 -17.3675 258.421 -65.1638 317.378 -65.1638V-65.1638Z" stroke="url(#paint5_linear_238_1066)"/>
<path fill-rule="evenodd" clip-rule="evenodd" d="M323.847 -60.5969C382.809 -60.5969 430.602 -12.8005 430.602 46.157C430.602 105.115 382.809 152.911 323.848 152.911C264.888 152.911 217.094 105.115 217.094 46.157C217.094 -12.8005 264.888 -60.5969 323.848 -60.5969H323.847Z" stroke="url(#paint6_linear_238_1066)"/>
<path fill-rule="evenodd" clip-rule="evenodd" d="M330.318 -56.0299C389.279 -56.0299 437.072 -8.23356 437.072 50.724C437.072 109.684 389.279 157.478 330.318 157.478C271.361 157.478 223.564 109.684 223.564 50.724C223.564 -8.23356 271.361 -56.0299 330.318 -56.0299Z" stroke="url(#paint7_linear_238_1066)"/>
<path fill-rule="evenodd" clip-rule="evenodd" d="M336.787 -51.4643C395.746 -51.4643 443.542 -3.66798 443.542 55.2896C443.542 114.25 395.746 162.043 336.788 162.043C277.828 162.043 230.034 114.25 230.034 55.2896C230.034 -3.66798 277.828 -51.4643 336.788 -51.4643H336.787Z" stroke="url(#paint8_linear_238_1066)"/>
<path fill-rule="evenodd" clip-rule="evenodd" d="M343.258 -46.8946C402.216 -46.8946 450.012 0.901742 450.012 59.8593C450.012 118.817 402.216 166.613 343.258 166.613C284.301 166.613 236.504 118.817 236.504 59.8593C236.504 0.901742 284.301 -46.8946 343.258 -46.8946V-46.8946Z" stroke="url(#paint9_linear_238_1066)"/>
<path fill-rule="evenodd" clip-rule="evenodd" d="M349.728 -42.3304C408.686 -42.3304 456.479 5.46595 456.479 64.4235C456.479 123.384 408.686 171.177 349.728 171.177C290.768 171.177 242.974 123.384 242.974 64.4235C242.974 5.46595 290.768 -42.3304 349.728 -42.3304V-42.3304Z" stroke="url(#paint10_linear_238_1066)"/>
<path fill-rule="evenodd" clip-rule="evenodd" d="M356.199 -37.7607C415.16 -37.7607 462.953 10.0329 462.953 68.9932C462.953 127.951 415.16 175.747 356.199 175.747C297.242 175.747 249.446 127.951 249.446 68.9932C249.446 10.0329 297.242 -37.7607 356.199 -37.7607V-37.7607Z" stroke="url(#paint11_linear_238_1066)"/>
<path fill-rule="evenodd" clip-rule="evenodd" d="M362.667 -33.1951C421.627 -33.1951 469.421 14.6012 469.421 73.5588C469.421 132.516 421.627 180.313 362.667 180.313C303.709 180.313 255.913 132.516 255.913 73.5588C255.913 14.6012 303.709 -33.1951 362.667 -33.1951Z" stroke="url(#paint12_linear_238_1066)"/>
<path fill-rule="evenodd" clip-rule="evenodd" d="M369.135 -28.6268C428.096 -28.6268 475.889 19.1696 475.889 78.1258C475.889 137.086 428.096 184.88 369.135 184.88C310.178 184.88 262.384 137.086 262.384 78.1258C262.384 19.1682 310.178 -28.6281 369.135 -28.6281V-28.6268Z" stroke="url(#paint13_linear_238_1066)"/>
<path fill-rule="evenodd" clip-rule="evenodd" d="M375.608 -24.0612C434.566 -24.0612 482.359 23.7324 482.359 82.6927C482.359 141.65 434.566 189.447 375.608 189.447C316.648 189.447 268.854 141.65 268.854 82.6927C268.854 23.7324 316.648 -24.0612 375.608 -24.0612Z" stroke="url(#paint14_linear_238_1066)"/>
<path fill-rule="evenodd" clip-rule="evenodd" d="M382.077 -19.4928C441.037 -19.4928 488.828 28.3035 488.828 87.2611C488.828 146.221 441.037 194.015 382.077 194.015C323.116 194.015 275.323 146.221 275.323 87.2611C275.323 28.3035 323.116 -19.4928 382.077 -19.4928V-19.4928Z" stroke="url(#paint15_linear_238_1066)"/>
<path fill-rule="evenodd" clip-rule="evenodd" d="M388.547 -14.9273C447.507 -14.9273 495.301 32.8691 495.301 91.8253C495.301 150.786 447.507 198.579 388.547 198.579C329.589 198.579 281.793 150.786 281.793 91.8253C281.793 32.8677 329.589 -14.9286 388.547 -14.9286V-14.9273Z" stroke="url(#paint16_linear_238_1066)"/>
<path fill-rule="evenodd" clip-rule="evenodd" d="M395.015 -10.3589C453.976 -10.3589 501.769 37.4374 501.769 96.395C501.769 155.353 453.976 203.149 395.015 203.149C336.058 203.149 288.261 155.353 288.261 96.395C288.261 37.4374 336.058 -10.3589 395.015 -10.3589V-10.3589Z" stroke="url(#paint17_linear_238_1066)"/>
<path fill-rule="evenodd" clip-rule="evenodd" d="M401.488 -5.79472C460.446 -5.79472 508.239 42.0016 508.239 100.959C508.239 159.92 460.446 207.713 401.488 207.713C342.528 207.713 294.734 159.92 294.734 100.959C294.734 42.0016 342.528 -5.79472 401.488 -5.79472V-5.79472Z" stroke="url(#paint18_linear_238_1066)"/>
<path fill-rule="evenodd" clip-rule="evenodd" d="M407.957 -1.22638C466.914 -1.22638 514.708 46.57 514.708 105.528C514.708 164.488 466.914 212.281 407.957 212.281C348.996 212.281 301.203 164.488 301.203 105.528C301.203 46.57 348.996 -1.22638 407.957 -1.22638V-1.22638Z" stroke="url(#paint19_linear_238_1066)"/>
<path fill-rule="evenodd" clip-rule="evenodd" d="M414.427 3.34058C473.388 3.34058 521.182 51.1369 521.182 110.094C521.182 169.052 473.388 216.848 414.428 216.848C355.47 216.848 307.674 169.052 307.674 110.094C307.674 51.1369 355.47 3.34058 414.428 3.34058H414.427Z" stroke="url(#paint20_linear_238_1066)"/>
<path fill-rule="evenodd" clip-rule="evenodd" d="M420.895 7.90754C479.855 7.90754 527.649 55.7039 527.649 114.661C527.649 173.622 479.855 221.415 420.895 221.415C361.935 221.415 314.141 173.622 314.141 114.661C314.141 55.7039 361.935 7.90754 420.895 7.90754V7.90754Z" stroke="url(#paint21_linear_238_1066)"/>
<path fill-rule="evenodd" clip-rule="evenodd" d="M427.366 12.4773C486.327 12.4773 534.12 60.2708 534.12 119.231C534.12 178.189 486.327 225.985 427.366 225.985C368.409 225.985 320.615 178.189 320.615 119.231C320.615 60.2708 368.409 12.4773 427.366 12.4773V12.4773Z" stroke="url(#paint22_linear_238_1066)"/>
<path fill-rule="evenodd" clip-rule="evenodd" d="M433.837 17.0429C492.794 17.0429 540.588 64.8392 540.588 123.797C540.588 182.757 492.794 230.551 433.837 230.551C374.876 230.551 327.083 182.757 327.083 123.797C327.083 64.8392 374.876 17.0429 433.837 17.0429Z" stroke="url(#paint23_linear_238_1066)"/>
<path fill-rule="evenodd" clip-rule="evenodd" d="M440.306 21.6098C499.268 21.6098 547.058 69.4061 547.058 128.364C547.058 187.324 499.268 235.118 440.306 235.118C381.348 235.118 333.554 187.324 333.554 128.364C333.554 69.4061 381.348 21.6098 440.308 21.6098H440.306Z" stroke="url(#paint24_linear_238_1066)"/>
<path fill-rule="evenodd" clip-rule="evenodd" d="M446.775 26.1768C505.735 26.1768 553.529 73.9731 553.529 132.931C553.529 191.888 505.735 239.685 446.775 239.685C387.815 239.685 340.021 191.888 340.021 132.931C340.021 73.9731 387.815 26.1768 446.775 26.1768V26.1768Z" stroke="url(#paint25_linear_238_1066)"/>
<path fill-rule="evenodd" clip-rule="evenodd" d="M453.246 30.7437C512.207 30.7437 560 78.5401 560 137.498C560 196.458 512.207 244.252 453.246 244.252C394.289 244.252 346.493 196.458 346.493 137.498C346.493 78.5401 394.289 30.7437 453.246 30.7437V30.7437Z" stroke="url(#paint26_linear_238_1066)"/>
<path fill-rule="evenodd" clip-rule="evenodd" d="M459.715 35.3093C518.675 35.3093 566.469 83.1056 566.469 142.063C566.469 201.024 518.675 248.817 459.715 248.817C400.758 248.817 352.964 201.024 352.964 142.063C352.964 83.1056 400.758 35.3093 459.715 35.3093V35.3093Z" stroke="url(#paint27_linear_238_1066)"/>
<path fill-rule="evenodd" clip-rule="evenodd" d="M466.185 39.879C525.142 39.879 572.936 87.6754 572.936 146.633C572.936 205.59 525.142 253.387 466.185 253.387C407.225 253.387 359.431 205.59 359.431 146.633C359.431 87.6754 407.225 39.879 466.185 39.879Z" stroke="url(#paint28_linear_238_1066)"/>
<path fill-rule="evenodd" clip-rule="evenodd" d="M472.656 44.4432C531.617 44.4432 579.41 92.2396 579.41 151.197C579.41 210.157 531.617 257.951 472.656 257.951C413.696 257.951 365.902 210.157 365.902 151.197C365.902 92.2396 413.696 44.4432 472.656 44.4432Z" stroke="url(#paint29_linear_238_1066)"/>
<path fill-rule="evenodd" clip-rule="evenodd" d="M479.124 49.0129C538.084 49.0129 585.878 96.8065 585.878 155.767C585.878 214.724 538.084 262.521 479.124 262.521C420.163 262.521 372.372 214.724 372.372 155.767C372.372 96.8065 420.163 49.0129 479.124 49.0129V49.0129Z" stroke="url(#paint30_linear_238_1066)"/>
<path fill-rule="evenodd" clip-rule="evenodd" d="M485.595 53.5785C544.555 53.5785 592.349 101.375 592.349 160.332C592.349 219.29 544.555 267.086 485.595 267.086C426.638 267.086 378.844 219.29 378.844 160.332C378.844 101.375 426.638 53.5785 485.595 53.5785V53.5785Z" stroke="url(#paint31_linear_238_1066)"/>
<path fill-rule="evenodd" clip-rule="evenodd" d="M492.066 58.1455C551.022 58.1455 598.817 105.942 598.817 164.899C598.817 223.86 551.022 271.653 492.066 271.653C433.105 271.653 385.311 223.86 385.311 164.899C385.311 105.942 433.105 58.1455 492.065 58.1455H492.066Z" stroke="url(#paint32_linear_238_1066)"/>
<path fill-rule="evenodd" clip-rule="evenodd" d="M498.536 62.7124C557.494 62.7124 605.287 110.509 605.287 169.466C605.287 228.424 557.494 276.22 498.536 276.22C439.576 276.22 391.782 228.424 391.782 169.466C391.782 110.509 439.576 62.7124 498.536 62.7124V62.7124Z" stroke="url(#paint33_linear_238_1066)"/>
<path fill-rule="evenodd" clip-rule="evenodd" d="M505.004 67.2808C563.964 67.2808 611.757 115.077 611.757 174.035C611.757 232.995 563.964 280.789 505.004 280.789C446.043 280.789 398.25 232.995 398.25 174.035C398.25 115.077 446.043 67.2808 505.004 67.2808V67.2808Z" stroke="url(#paint34_linear_238_1066)"/>
<path fill-rule="evenodd" clip-rule="evenodd" d="M511.475 71.845C570.435 71.845 618.229 119.641 618.229 178.599C618.229 237.559 570.435 285.353 511.475 285.353C452.517 285.353 404.724 237.559 404.724 178.599C404.724 119.641 452.517 71.845 511.475 71.845V71.845Z" stroke="url(#paint35_linear_238_1066)"/>
<path fill-rule="evenodd" clip-rule="evenodd" d="M517.944 76.4147C576.904 76.4147 624.697 124.211 624.697 183.169C624.697 242.126 576.904 289.923 517.944 289.923C458.986 289.923 411.192 242.126 411.192 183.169C411.192 124.211 458.986 76.4147 517.944 76.4147V76.4147Z" stroke="url(#paint36_linear_238_1066)"/>
<path fill-rule="evenodd" clip-rule="evenodd" d="M524.416 80.9789C583.374 80.9789 631.167 128.775 631.167 187.733C631.167 246.693 583.374 294.487 524.416 294.487C465.456 294.487 417.662 246.693 417.662 187.733C417.662 128.775 465.456 80.9789 524.416 80.9789V80.9789Z" stroke="url(#paint37_linear_238_1066)"/>
<path fill-rule="evenodd" clip-rule="evenodd" d="M530.885 85.5472C589.845 85.5472 637.639 133.344 637.639 192.301C637.639 251.261 589.845 299.055 530.885 299.055C471.924 299.055 424.131 251.261 424.131 192.301C424.131 133.344 471.924 85.5472 530.885 85.5472Z" stroke="url(#paint38_linear_238_1066)"/>
<path fill-rule="evenodd" clip-rule="evenodd" d="M537.355 90.1142C596.315 90.1142 644.109 137.911 644.109 196.868C644.109 255.826 596.315 303.622 537.355 303.622C478.395 303.622 430.604 255.826 430.604 196.868C430.604 137.911 478.395 90.1142 537.355 90.1142V90.1142Z" stroke="url(#paint39_linear_238_1066)"/>
<path fill-rule="evenodd" clip-rule="evenodd" d="M543.823 94.6825C602.784 94.6825 650.577 142.479 650.577 201.435C650.577 260.395 602.784 308.189 543.823 308.189C484.866 308.189 437.072 260.395 437.072 201.435C437.072 142.477 484.866 94.6812 543.823 94.6812V94.6825Z" stroke="url(#paint40_linear_238_1066)"/>
<path fill-rule="evenodd" clip-rule="evenodd" d="M550.293 99.2481C609.251 99.2481 657.044 147.042 657.044 206.002C657.044 264.96 609.251 312.756 550.293 312.756C491.333 312.756 443.539 264.96 443.539 206.002C443.539 147.042 491.333 99.2481 550.293 99.2481Z" stroke="url(#paint41_linear_238_1066)"/>
<path fill-rule="evenodd" clip-rule="evenodd" d="M556.765 103.816C615.722 103.816 663.516 151.613 663.516 210.57C663.516 269.531 615.722 317.324 556.765 317.324C497.804 317.324 450.011 269.531 450.011 210.57C450.011 151.613 497.804 103.816 556.765 103.816Z" stroke="url(#paint42_linear_238_1066)"/>
<path fill-rule="evenodd" clip-rule="evenodd" d="M563.233 108.382C622.193 108.382 669.987 156.178 669.987 215.135C669.987 274.095 622.193 321.888 563.233 321.888C504.273 321.888 456.479 274.095 456.479 215.135C456.479 156.177 504.273 108.381 563.233 108.381V108.382Z" stroke="url(#paint43_linear_238_1066)"/>
<path fill-rule="evenodd" clip-rule="evenodd" d="M569.703 112.95C628.664 112.95 676.457 160.747 676.457 219.704C676.457 278.662 628.664 326.458 569.703 326.458C510.746 326.458 462.952 278.662 462.952 219.704C462.952 160.747 510.746 112.95 569.703 112.95V112.95Z" stroke="url(#paint44_linear_238_1066)"/>
<path fill-rule="evenodd" clip-rule="evenodd" d="M576.172 117.516C635.132 117.516 682.926 165.312 682.926 224.27C682.926 283.23 635.132 331.024 576.172 331.024C517.214 331.024 469.421 283.23 469.421 224.27C469.421 165.312 517.214 117.516 576.172 117.516Z" stroke="url(#paint45_linear_238_1066)"/>
<path fill-rule="evenodd" clip-rule="evenodd" d="M582.646 122.083C641.602 122.083 689.397 169.879 689.397 228.837C689.397 287.797 641.602 335.591 582.646 335.591C523.684 335.591 475.891 287.797 475.891 228.837C475.891 169.879 523.684 122.083 582.645 122.083H582.646Z" stroke="url(#paint46_linear_238_1066)"/>
<path fill-rule="evenodd" clip-rule="evenodd" d="M589.113 126.65C648.073 126.65 695.864 174.446 695.864 233.404C695.864 292.361 648.073 340.158 589.113 340.158C530.153 340.158 482.359 292.361 482.359 233.404C482.359 174.446 530.153 126.65 589.113 126.65V126.65Z" stroke="url(#paint47_linear_238_1066)"/>
<path fill-rule="evenodd" clip-rule="evenodd" d="M595.583 131.217C654.544 131.217 702.337 179.013 702.337 237.971C702.337 296.931 654.544 344.725 595.583 344.725C536.623 344.725 488.829 296.931 488.829 237.971C488.829 179.013 536.623 131.217 595.583 131.217Z" stroke="url(#paint48_linear_238_1066)"/>
<path fill-rule="evenodd" clip-rule="evenodd" d="M598.704 143.243C657.664 143.243 705.458 191.039 705.458 249.996C705.458 308.957 657.664 356.75 598.704 356.75C539.747 356.75 491.953 308.957 491.953 249.996C491.953 191.039 539.747 143.243 598.704 143.243V143.243Z" stroke="url(#paint49_linear_238_1066)"/>
<path fill-rule="evenodd" clip-rule="evenodd" d="M588.887 146.134C647.847 146.134 695.641 193.931 695.641 252.888C695.641 311.849 647.847 359.642 588.887 359.642C529.926 359.642 482.133 311.849 482.133 252.888C482.133 193.931 529.926 146.134 588.887 146.134V146.134Z" stroke="url(#paint50_linear_238_1066)"/>
<path fill-rule="evenodd" clip-rule="evenodd" d="M579.069 149.028C638.025 149.028 685.82 196.824 685.82 255.781C685.82 314.739 638.025 362.535 579.069 362.535C520.108 362.535 472.314 314.739 472.314 255.781C472.314 196.824 520.108 149.028 579.068 149.028H579.069Z" stroke="url(#paint51_linear_238_1066)"/>
<path fill-rule="evenodd" clip-rule="evenodd" d="M569.247 151.922C628.208 151.922 676.001 199.718 676.001 258.676C676.001 317.636 628.208 365.43 569.247 365.43C510.29 365.43 462.496 317.636 462.496 258.676C462.496 199.718 510.29 151.922 569.247 151.922Z" stroke="url(#paint52_linear_238_1066)"/>
<path fill-rule="evenodd" clip-rule="evenodd" d="M559.427 154.813C618.387 154.813 666.181 202.609 666.181 261.566C666.181 320.524 618.387 368.32 559.427 368.32C500.467 368.32 452.673 320.524 452.673 261.566C452.673 202.609 500.467 154.813 559.427 154.813Z" stroke="url(#paint53_linear_238_1066)"/>
<path fill-rule="evenodd" clip-rule="evenodd" d="M549.608 157.704C608.566 157.704 656.359 205.501 656.359 264.458C656.359 323.419 608.566 371.212 549.608 371.212C490.648 371.212 442.854 323.419 442.854 264.458C442.854 205.501 490.648 157.704 549.608 157.704Z" stroke="url(#paint54_linear_238_1066)"/>
<path fill-rule="evenodd" clip-rule="evenodd" d="M539.788 160.598C598.748 160.598 646.542 208.394 646.542 267.351C646.542 326.312 598.748 374.105 539.788 374.105C480.831 374.105 433.037 326.312 433.037 267.351C433.037 208.394 480.831 160.598 539.788 160.598V160.598Z" stroke="url(#paint55_linear_238_1066)"/>
<path fill-rule="evenodd" clip-rule="evenodd" d="M529.97 163.489C588.931 163.489 636.724 211.286 636.724 270.243C636.724 329.204 588.931 376.997 529.97 376.997C471.01 376.997 423.217 329.204 423.217 270.243C423.217 211.286 471.01 163.489 529.97 163.489V163.489Z" stroke="url(#paint56_linear_238_1066)"/>
<path fill-rule="evenodd" clip-rule="evenodd" d="M520.152 166.384C579.109 166.384 626.903 214.18 626.903 273.136C626.903 332.097 579.109 379.89 520.152 379.89C461.191 379.89 413.398 332.097 413.398 273.136C413.398 214.179 461.191 166.383 520.152 166.383V166.384Z" stroke="url(#paint57_linear_238_1066)"/>
<path fill-rule="evenodd" clip-rule="evenodd" d="M510.331 169.276C569.292 169.276 617.085 217.069 617.085 276.03C617.085 334.987 569.292 382.784 510.331 382.784C451.374 382.784 403.58 334.987 403.58 276.03C403.58 217.069 451.374 169.276 510.331 169.276V169.276Z" stroke="url(#paint58_linear_238_1066)"/>
<path fill-rule="evenodd" clip-rule="evenodd" d="M500.514 172.168C559.474 172.168 607.268 219.964 607.268 278.921C607.268 337.879 559.474 385.675 500.514 385.675C441.553 385.675 393.76 337.879 393.76 278.921C393.76 219.964 441.553 172.168 500.514 172.168V172.168Z" stroke="url(#paint59_linear_238_1066)"/>
<path fill-rule="evenodd" clip-rule="evenodd" d="M490.695 175.058C549.652 175.058 597.446 222.854 597.446 281.812C597.446 340.77 549.652 388.566 490.695 388.566C431.734 388.566 383.941 340.77 383.941 281.812C383.941 222.854 431.734 175.058 490.695 175.058V175.058Z" stroke="url(#paint60_linear_238_1066)"/>
<path fill-rule="evenodd" clip-rule="evenodd" d="M480.875 177.95C539.835 177.95 587.628 225.746 587.628 284.704C587.628 343.661 539.835 391.458 480.875 391.458C421.917 391.458 374.123 343.661 374.123 284.704C374.123 225.746 421.917 177.95 480.875 177.95V177.95Z" stroke="url(#paint61_linear_238_1066)"/>
<path fill-rule="evenodd" clip-rule="evenodd" d="M471.056 180.846C530.016 180.846 577.81 228.639 577.81 287.6C577.81 346.56 530.016 394.354 471.056 394.354C412.095 394.354 364.302 346.56 364.302 287.6C364.302 228.639 412.095 180.846 471.056 180.846Z" stroke="url(#paint62_linear_238_1066)"/>
<path fill-rule="evenodd" clip-rule="evenodd" d="M461.238 183.738C520.196 183.738 567.989 231.534 567.989 290.491C567.989 349.452 520.196 397.245 461.238 397.245C402.278 397.245 354.484 349.452 354.484 290.491C354.484 231.534 402.278 183.738 461.238 183.738Z" stroke="url(#paint63_linear_238_1066)"/>
<path fill-rule="evenodd" clip-rule="evenodd" d="M451.418 186.629C510.378 186.629 558.172 234.426 558.172 293.382C558.172 352.342 510.378 400.136 451.418 400.136C392.46 400.136 344.667 352.342 344.667 293.382C344.667 234.424 392.46 186.628 451.418 186.628V186.629Z" stroke="url(#paint64_linear_238_1066)"/>
<path fill-rule="evenodd" clip-rule="evenodd" d="M441.599 189.52C500.559 189.52 548.353 237.316 548.353 296.274C548.353 355.234 500.559 403.028 441.599 403.028C382.639 403.028 334.845 355.234 334.845 296.274C334.845 237.316 382.639 189.52 441.599 189.52Z" stroke="url(#paint65_linear_238_1066)"/>
<path fill-rule="evenodd" clip-rule="evenodd" d="M431.782 192.416C490.739 192.416 538.533 240.212 538.533 299.17C538.533 358.127 490.739 405.924 431.782 405.924C372.821 405.924 325.028 358.127 325.028 299.17C325.028 240.212 372.821 192.416 431.782 192.416Z" stroke="url(#paint66_linear_238_1066)"/>
<path fill-rule="evenodd" clip-rule="evenodd" d="M421.961 195.308C480.922 195.308 528.715 243.104 528.715 302.061C528.715 361.019 480.922 408.815 421.961 408.815C363.004 408.815 315.21 361.019 315.21 302.061C315.21 243.104 363.004 195.308 421.961 195.308Z" stroke="url(#paint67_linear_238_1066)"/>
<path fill-rule="evenodd" clip-rule="evenodd" d="M412.142 198.198C471.103 198.198 518.896 245.994 518.896 304.952C518.896 363.909 471.103 411.706 412.142 411.706C353.185 411.706 305.388 363.909 305.388 304.952C305.388 245.994 353.185 198.198 412.142 198.198Z" stroke="url(#paint68_linear_238_1066)"/>
<path fill-rule="evenodd" clip-rule="evenodd" d="M402.325 201.09C461.282 201.09 509.076 248.886 509.076 307.844C509.076 366.804 461.282 414.598 402.325 414.598C343.364 414.598 295.571 366.804 295.571 307.844C295.571 248.886 343.364 201.09 402.325 201.09Z" stroke="url(#paint69_linear_238_1066)"/>
<path fill-rule="evenodd" clip-rule="evenodd" d="M392.505 203.983C451.465 203.983 499.259 251.779 499.259 310.737C499.259 369.697 451.465 417.491 392.505 417.491C333.547 417.491 285.754 369.697 285.754 310.737C285.754 251.779 333.547 203.983 392.505 203.983V203.983Z" stroke="url(#paint70_linear_238_1066)"/>
<path fill-rule="evenodd" clip-rule="evenodd" d="M382.686 206.878C441.646 206.878 489.44 254.674 489.44 313.631C489.44 372.592 441.646 420.385 382.686 420.385C323.728 420.385 275.932 372.592 275.932 313.631C275.932 254.674 323.728 206.878 382.686 206.878V206.878Z" stroke="url(#paint71_linear_238_1066)"/>
<path fill-rule="evenodd" clip-rule="evenodd" d="M372.868 209.768C431.828 209.768 479.619 257.564 479.619 316.522C479.619 375.482 431.828 423.276 372.868 423.276C313.908 423.276 266.114 375.482 266.114 316.522C266.114 257.564 313.908 209.768 372.868 209.768Z" stroke="url(#paint72_linear_238_1066)"/>
<path fill-rule="evenodd" clip-rule="evenodd" d="M363.049 212.661C422.007 212.661 469.8 260.455 469.8 319.412C469.8 378.373 422.007 426.169 363.049 426.169C304.089 426.169 256.295 378.373 256.295 319.412C256.295 260.455 304.089 212.661 363.049 212.661V212.661Z" stroke="url(#paint73_linear_238_1066)"/>
<path fill-rule="evenodd" clip-rule="evenodd" d="M353.229 215.553C412.189 215.553 459.983 263.349 459.983 322.307C459.983 381.264 412.189 429.061 353.229 429.061C294.271 429.061 246.475 381.264 246.475 322.307C246.475 263.349 294.271 215.553 353.229 215.553V215.553Z" stroke="url(#paint74_linear_238_1066)"/>
<path fill-rule="evenodd" clip-rule="evenodd" d="M343.411 218.448C402.372 218.448 450.163 266.244 450.163 325.2C450.163 384.158 402.372 431.954 343.411 431.954C284.451 431.954 236.658 384.158 236.658 325.2C236.658 266.243 284.451 218.446 343.411 218.446V218.448Z" stroke="url(#paint75_linear_238_1066)"/>
<path fill-rule="evenodd" clip-rule="evenodd" d="M333.591 221.338C392.549 221.338 440.345 269.134 440.345 328.092C440.345 387.049 392.549 434.846 333.591 434.846C274.634 434.846 226.837 387.049 226.837 328.092C226.837 269.134 274.634 221.338 333.591 221.338V221.338Z" stroke="url(#paint76_linear_238_1066)"/>
<path fill-rule="evenodd" clip-rule="evenodd" d="M323.772 224.231C382.733 224.231 430.526 272.025 430.526 330.985C430.526 389.945 382.733 437.739 323.772 437.739C264.815 437.739 217.018 389.945 217.018 330.985C217.018 272.025 264.815 224.231 323.772 224.231V224.231Z" stroke="url(#paint77_linear_238_1066)"/>
<path fill-rule="evenodd" clip-rule="evenodd" d="M313.955 227.123C372.915 227.123 420.709 274.919 420.709 333.877C420.709 392.837 372.915 440.631 313.955 440.631C254.995 440.631 207.201 392.837 207.201 333.877C207.201 274.919 254.995 227.123 313.955 227.123Z" stroke="url(#paint78_linear_238_1066)"/>
<path fill-rule="evenodd" clip-rule="evenodd" d="M304.135 230.013C363.092 230.013 410.889 277.81 410.889 336.767C410.889 395.728 363.092 443.521 304.135 443.521C245.177 443.521 197.381 395.728 197.381 336.767C197.381 277.81 245.177 230.013 304.135 230.013V230.013Z" stroke="url(#paint79_linear_238_1066)"/>
<path fill-rule="evenodd" clip-rule="evenodd" d="M294.317 232.908C353.275 232.908 401.071 280.704 401.071 339.662C401.071 398.622 353.275 446.416 294.317 446.416C235.357 446.416 187.563 398.622 187.563 339.662C187.563 280.704 235.357 232.908 294.317 232.908V232.908Z" stroke="url(#paint80_linear_238_1066)"/>
<path fill-rule="evenodd" clip-rule="evenodd" d="M284.498 235.801C343.456 235.801 391.252 283.598 391.252 342.552C391.252 401.513 343.456 449.309 284.498 449.309C225.541 449.309 177.744 401.513 177.744 342.552C177.744 283.598 225.541 235.801 284.498 235.801V235.801Z" stroke="url(#paint81_linear_238_1066)"/>
<path fill-rule="evenodd" clip-rule="evenodd" d="M274.675 238.693C333.635 238.693 381.429 286.489 381.429 345.447C381.429 404.404 333.635 452.201 274.675 452.201C215.717 452.201 167.921 404.404 167.921 345.447C167.921 286.489 215.717 238.693 274.675 238.693V238.693Z" stroke="url(#paint82_linear_238_1066)"/>
<path fill-rule="evenodd" clip-rule="evenodd" d="M264.858 241.583C323.815 241.583 371.612 289.38 371.612 348.337C371.612 407.295 323.815 455.091 264.858 455.091C205.897 455.091 158.104 407.295 158.104 348.337C158.104 289.38 205.897 241.583 264.858 241.583V241.583Z" stroke="url(#paint83_linear_238_1066)"/>
<path fill-rule="evenodd" clip-rule="evenodd" d="M255.039 244.478C313.996 244.478 361.793 292.274 361.793 351.232C361.793 410.192 313.996 457.986 255.039 457.986C196.081 457.986 148.285 410.192 148.285 351.232C148.285 292.274 196.081 244.478 255.039 244.478V244.478Z" stroke="url(#paint84_linear_238_1066)"/>
<path fill-rule="evenodd" clip-rule="evenodd" d="M245.219 247.371C304.179 247.371 351.972 295.167 351.972 354.125C351.972 413.085 304.179 460.879 245.219 460.879C186.261 460.879 138.465 413.085 138.465 354.125C138.465 295.167 186.261 247.371 245.219 247.371V247.371Z" stroke="url(#paint85_linear_238_1066)"/>
<path fill-rule="evenodd" clip-rule="evenodd" d="M235.401 250.263C294.359 250.263 342.155 298.059 342.155 357.017C342.155 415.977 294.359 463.771 235.401 463.771C176.441 463.771 128.647 415.977 128.647 357.017C128.647 298.059 176.441 250.263 235.401 250.263V250.263Z" stroke="url(#paint86_linear_238_1066)"/>
<path fill-rule="evenodd" clip-rule="evenodd" d="M225.582 253.153C284.54 253.153 332.336 300.95 332.336 359.907C332.336 418.868 284.54 466.661 225.582 466.661C166.625 466.661 118.828 418.868 118.828 359.907C118.828 300.95 166.625 253.153 225.582 253.153V253.153Z" stroke="url(#paint87_linear_238_1066)"/>
<path fill-rule="evenodd" clip-rule="evenodd" d="M215.762 256.047C274.722 256.047 322.516 303.84 322.516 362.798C322.516 421.758 274.722 469.554 215.762 469.554C156.804 469.554 109.008 421.758 109.008 362.798C109.008 303.84 156.804 256.047 215.762 256.047V256.047Z" stroke="url(#paint88_linear_238_1066)"/>
<path fill-rule="evenodd" clip-rule="evenodd" d="M205.944 258.941C264.902 258.941 312.698 306.738 312.698 365.695C312.698 424.653 264.902 472.449 205.944 472.449C146.984 472.449 99.1902 424.653 99.1902 365.695C99.1902 306.738 146.984 258.941 205.944 258.941V258.941Z" stroke="url(#paint89_linear_238_1066)"/>
<path fill-rule="evenodd" clip-rule="evenodd" d="M196.124 261.832C255.081 261.832 302.878 309.628 302.878 368.586C302.878 427.543 255.081 475.339 196.124 475.339C137.166 475.339 89.37 427.543 89.37 368.586C89.37 309.628 137.166 261.832 196.124 261.832V261.832Z" stroke="url(#paint90_linear_238_1066)"/>
<path fill-rule="evenodd" clip-rule="evenodd" d="M186.305 264.725C245.265 264.725 293.059 312.521 293.059 371.477C293.059 430.435 245.265 478.231 186.305 478.231C127.347 478.231 79.5511 430.435 79.5511 371.477C79.5511 312.52 127.347 264.723 186.305 264.723V264.725Z" stroke="url(#paint91_linear_238_1066)"/>
<path fill-rule="evenodd" clip-rule="evenodd" d="M176.488 267.617C235.445 267.617 283.241 315.41 283.241 374.371C283.241 433.331 235.445 481.124 176.488 481.124C117.527 481.124 69.7336 433.331 69.7336 374.371C69.7336 315.41 117.527 267.617 176.488 267.617V267.617Z" stroke="url(#paint92_linear_238_1066)"/>
<path fill-rule="evenodd" clip-rule="evenodd" d="M166.667 270.511C225.628 270.511 273.421 318.308 273.421 377.265C273.421 436.225 225.628 484.019 166.667 484.019C107.71 484.019 59.9135 436.225 59.9135 377.265C59.9135 318.308 107.71 270.511 166.667 270.511V270.511Z" stroke="url(#paint93_linear_238_1066)"/>
<path fill-rule="evenodd" clip-rule="evenodd" d="M156.85 273.402C215.807 273.402 263.604 321.198 263.604 380.156C263.604 439.116 215.807 486.909 156.85 486.909C97.8894 486.909 50.0958 439.116 50.0958 380.156C50.0958 321.198 97.8894 273.402 156.85 273.402V273.402Z" stroke="url(#paint94_linear_238_1066)"/>
<path fill-rule="evenodd" clip-rule="evenodd" d="M147.031 276.293C205.988 276.293 253.785 324.09 253.785 383.047C253.785 442.008 205.988 489.801 147.031 489.801C88.0733 489.801 40.277 442.008 40.277 383.047C40.277 324.09 88.0733 276.293 147.031 276.293Z" stroke="url(#paint95_linear_238_1066)"/>
<path fill-rule="evenodd" clip-rule="evenodd" d="M137.211 279.187C196.171 279.187 243.964 326.983 243.964 385.938C243.964 444.898 196.171 492.694 137.211 492.694C78.253 492.694 30.4567 444.898 30.4567 385.938C30.4567 326.983 78.253 279.187 137.211 279.187V279.187Z" stroke="url(#paint96_linear_238_1066)"/>
<path fill-rule="evenodd" clip-rule="evenodd" d="M127.393 282.078C186.351 282.078 234.147 329.875 234.147 388.832C234.147 447.79 186.351 495.586 127.393 495.586C68.4326 495.586 20.639 447.79 20.639 388.832C20.639 329.875 68.4326 282.078 127.393 282.078Z" stroke="url(#paint97_linear_238_1066)"/>
<path fill-rule="evenodd" clip-rule="evenodd" d="M117.574 284.972C176.532 284.972 224.328 332.768 224.328 391.726C224.328 450.683 176.532 498.479 117.574 498.479C58.6165 498.479 10.8202 450.683 10.8202 391.726C10.8202 332.768 58.6165 284.972 117.574 284.972V284.972Z" stroke="url(#paint98_linear_238_1066)"/>
<path fill-rule="evenodd" clip-rule="evenodd" d="M107.754 287.863C166.714 287.863 214.508 335.66 214.508 394.617C214.508 453.578 166.714 501.371 107.754 501.371C48.7963 501.371 1 453.578 1 394.617C1 335.66 48.7963 287.863 107.754 287.863Z" stroke="url(#paint99_linear_238_1066)"/>
<path fill-rule="evenodd" clip-rule="evenodd" d="M114.445 292.256C173.402 292.256 221.199 340.05 221.199 399.01C221.199 457.971 173.402 505.764 114.445 505.764C55.4845 505.764 7.69092 457.971 7.69092 399.01C7.69092 340.05 55.4845 292.256 114.445 292.256Z" stroke="url(#paint100_linear_238_1066)"/>
<path fill-rule="evenodd" clip-rule="evenodd" d="M121.137 296.647C180.095 296.647 227.891 344.443 227.891 403.4C227.891 462.361 180.095 510.154 121.137 510.154C62.1796 510.154 14.3833 462.361 14.3833 403.4C14.3833 344.443 62.1796 296.647 121.137 296.647Z" stroke="url(#paint101_linear_238_1066)"/>
<path fill-rule="evenodd" clip-rule="evenodd" d="M127.828 301.038C186.788 301.038 234.582 348.834 234.582 407.792C234.582 466.752 186.788 514.546 127.828 514.546C68.8706 514.546 21.0742 466.752 21.0742 407.792C21.0742 348.834 68.8706 301.038 127.828 301.038Z" stroke="url(#paint102_linear_238_1066)"/>
<path fill-rule="evenodd" clip-rule="evenodd" d="M134.518 305.434C193.478 305.434 241.271 353.23 241.271 412.188C241.271 471.145 193.478 518.942 134.518 518.942C75.56 518.942 27.7637 471.145 27.7637 412.188C27.7637 353.23 75.56 305.434 134.518 305.434V305.434Z" stroke="url(#paint103_linear_238_1066)"/>
<path fill-rule="evenodd" clip-rule="evenodd" d="M141.21 309.824C200.169 309.824 247.965 357.62 247.965 416.578C247.965 475.536 200.169 523.332 141.211 523.332C82.2511 523.332 34.4575 475.536 34.4575 416.578C34.4575 357.62 82.2511 309.824 141.211 309.824H141.21Z" stroke="url(#paint104_linear_238_1066)"/>
<path fill-rule="evenodd" clip-rule="evenodd" d="M147.901 314.216C206.858 314.216 254.655 362.012 254.655 420.97C254.655 479.93 206.858 527.723 147.901 527.723C88.9433 527.723 41.147 479.93 41.147 420.97C41.147 362.012 88.9433 314.216 147.901 314.216Z" stroke="url(#paint105_linear_238_1066)"/>
<path fill-rule="evenodd" clip-rule="evenodd" d="M154.592 318.609C213.552 318.609 261.346 366.402 261.346 425.362C261.346 484.323 213.552 532.116 154.592 532.116C95.6342 532.116 47.8379 484.323 47.8379 425.362C47.8379 366.402 95.6342 318.609 154.592 318.609V318.609Z" stroke="url(#paint106_linear_238_1066)"/>
<path fill-rule="evenodd" clip-rule="evenodd" d="M161.283 323C220.24 323 268.037 370.794 268.037 429.751C268.037 488.712 220.24 536.508 161.283 536.508C102.322 536.508 54.5288 488.712 54.5288 429.751C54.5288 370.794 102.322 323 161.283 323V323Z" stroke="url(#paint107_linear_238_1066)"/>
<path fill-rule="evenodd" clip-rule="evenodd" d="M167.974 327.395C226.933 327.395 274.729 375.191 274.729 434.146C274.729 493.106 226.933 540.902 167.975 540.902C109.018 540.902 61.2213 493.106 61.2213 434.146C61.2213 375.191 109.018 327.395 167.975 327.395H167.974Z" stroke="url(#paint108_linear_238_1066)"/>
<path fill-rule="evenodd" clip-rule="evenodd" d="M174.663 331.786C233.621 331.786 281.417 379.582 281.417 438.54C281.417 497.498 233.621 545.294 174.663 545.294C115.706 545.294 67.9093 497.498 67.9093 438.54C67.9093 379.582 115.706 331.786 174.663 331.786V331.786Z" stroke="url(#paint109_linear_238_1066)"/>
<path fill-rule="evenodd" clip-rule="evenodd" d="M181.356 336.178C240.316 336.178 288.109 383.974 288.109 442.93C288.109 501.888 240.316 549.684 181.356 549.684C122.398 549.684 74.6017 501.888 74.6017 442.93C74.6017 383.973 122.398 336.176 181.356 336.176V336.178Z" stroke="url(#paint110_linear_238_1066)"/>
<path fill-rule="evenodd" clip-rule="evenodd" d="M188.049 340.569C247.007 340.569 294.803 388.366 294.803 447.322C294.803 506.279 247.007 554.076 188.049 554.076C129.089 554.076 81.2954 506.279 81.2954 447.322C81.2954 388.364 129.089 340.568 188.049 340.568V340.569Z" stroke="url(#paint111_linear_238_1066)"/>
<path fill-rule="evenodd" clip-rule="evenodd" d="M194.737 344.961C253.696 344.961 301.493 392.757 301.493 451.716C301.493 510.676 253.696 558.473 194.739 558.473C135.781 558.473 87.985 510.676 87.985 451.716C87.985 392.759 135.781 344.962 194.739 344.962L194.737 344.961Z" stroke="url(#paint112_linear_238_1066)"/>
<path fill-rule="evenodd" clip-rule="evenodd" d="M201.43 349.355C260.39 349.355 308.184 397.149 308.184 456.106C308.184 515.067 260.39 562.863 201.43 562.863C142.472 562.863 94.6759 515.067 94.6759 456.106C94.6759 397.149 142.472 349.355 201.43 349.355V349.355Z" stroke="url(#paint113_linear_238_1066)"/>
<path fill-rule="evenodd" clip-rule="evenodd" d="M208.121 353.747C267.078 353.747 314.875 401.543 314.875 460.498C314.875 519.458 267.078 567.255 208.121 567.255C149.16 567.255 101.367 519.458 101.367 460.498C101.367 401.543 149.16 353.747 208.121 353.747V353.747Z" stroke="url(#paint114_linear_238_1066)"/>
<path fill-rule="evenodd" clip-rule="evenodd" d="M214.813 358.138C273.771 358.138 321.567 405.935 321.567 464.889C321.567 523.85 273.771 571.646 214.813 571.646C155.855 571.646 108.059 523.85 108.059 464.889C108.059 405.935 155.855 358.138 214.813 358.138V358.138Z" stroke="url(#paint115_linear_238_1066)"/>
<path fill-rule="evenodd" clip-rule="evenodd" d="M221.501 362.529C280.459 362.529 328.255 410.325 328.255 469.282C328.255 528.24 280.459 576.036 221.501 576.036C162.544 576.036 114.747 528.24 114.747 469.282C114.747 410.325 162.544 362.529 221.501 362.529Z" stroke="url(#paint116_linear_238_1066)"/>
<path fill-rule="evenodd" clip-rule="evenodd" d="M228.193 366.923C287.154 366.923 334.947 414.719 334.947 473.677C334.947 532.637 287.154 580.431 228.193 580.431C169.236 580.431 121.44 532.637 121.44 473.677C121.44 414.719 169.236 366.923 228.193 366.923Z" stroke="url(#paint117_linear_238_1066)"/>
<path fill-rule="evenodd" clip-rule="evenodd" d="M234.883 371.314C293.842 371.314 341.638 419.111 341.638 478.068C341.638 537.029 293.842 584.825 234.884 584.825C175.924 584.825 128.13 537.029 128.13 478.068C128.13 419.111 175.924 371.314 234.884 371.314H234.883Z" stroke="url(#paint118_linear_238_1066)"/>
<path fill-rule="evenodd" clip-rule="evenodd" d="M241.577 375.707C300.534 375.707 348.331 423.501 348.331 482.458C348.331 541.419 300.534 589.215 241.577 589.215C182.619 589.215 134.823 541.419 134.823 482.458C134.823 423.501 182.619 375.707 241.577 375.707V375.707Z" stroke="url(#paint119_linear_238_1066)"/>
<path fill-rule="evenodd" clip-rule="evenodd" d="M248.268 380.099C307.228 380.099 355.022 427.895 355.022 486.85C355.022 545.81 307.228 593.607 248.268 593.607C189.31 593.607 141.514 545.81 141.514 486.85C141.514 427.895 189.31 380.099 248.268 380.099Z" stroke="url(#paint120_linear_238_1066)"/>
<path fill-rule="evenodd" clip-rule="evenodd" d="M254.959 384.49C313.916 384.49 361.713 432.287 361.713 491.242C361.713 550.202 313.916 597.998 254.959 597.998C195.998 597.998 148.205 550.202 148.205 491.242C148.205 432.287 195.998 384.49 254.959 384.49V384.49Z" stroke="url(#paint121_linear_238_1066)"/>
<path fill-rule="evenodd" clip-rule="evenodd" d="M261.651 388.883C320.608 388.883 368.405 436.68 368.405 495.637C368.405 554.595 320.608 602.391 261.651 602.391C202.693 602.391 154.897 554.595 154.897 495.637C154.897 436.68 202.693 388.883 261.651 388.883V388.883Z" stroke="url(#paint122_linear_238_1066)"/>
<path fill-rule="evenodd" clip-rule="evenodd" d="M268.339 393.275C327.297 393.275 375.093 441.071 375.093 500.029C375.093 558.986 327.297 606.783 268.339 606.783C209.382 606.783 161.585 558.986 161.585 500.029C161.585 441.071 209.382 393.275 268.339 393.275Z" stroke="url(#paint123_linear_238_1066)"/>
<path fill-rule="evenodd" clip-rule="evenodd" d="M275.031 397.667C333.992 397.667 381.785 445.463 381.785 504.42C381.785 563.381 333.992 611.177 275.031 611.177C216.074 611.177 168.278 563.381 168.278 504.42C168.278 445.463 216.074 397.667 275.031 397.667V397.667Z" stroke="url(#paint124_linear_238_1066)"/>
<path fill-rule="evenodd" clip-rule="evenodd" d="M281.722 402.06C340.68 402.06 388.474 449.853 388.474 508.811C388.474 567.771 340.68 615.567 281.722 615.567C222.762 615.567 174.969 567.771 174.969 508.811C174.969 449.853 222.762 402.06 281.722 402.06V402.06Z" stroke="url(#paint125_linear_238_1066)"/>
<path fill-rule="evenodd" clip-rule="evenodd" d="M288.415 406.451C347.372 406.451 395.168 454.247 395.168 513.202C395.168 572.163 347.372 619.959 288.415 619.959C229.457 619.959 181.661 572.163 181.661 513.202C181.661 454.247 229.457 406.451 288.415 406.451V406.451Z" stroke="url(#paint126_linear_238_1066)"/>
<path fill-rule="evenodd" clip-rule="evenodd" d="M295.103 410.845C354.063 410.845 401.857 458.642 401.857 517.597C401.857 576.557 354.063 624.353 295.103 624.353C236.145 624.353 188.349 576.557 188.349 517.597C188.349 458.642 236.145 410.845 295.103 410.845Z" stroke="url(#paint127_linear_238_1066)"/>
<path fill-rule="evenodd" clip-rule="evenodd" d="M301.797 415.236C360.754 415.236 408.551 463.032 408.551 521.99C408.551 580.947 360.754 628.743 301.797 628.743C242.836 628.743 195.043 580.947 195.043 521.99C195.043 463.032 242.836 415.236 301.797 415.236V415.236Z" stroke="url(#paint128_linear_238_1066)"/>
<path fill-rule="evenodd" clip-rule="evenodd" d="M308.489 419.627C367.446 419.627 415.243 467.424 415.243 526.381C415.243 585.339 367.446 633.135 308.489 633.135C249.529 633.135 201.735 585.339 201.735 526.381C201.735 467.424 249.529 419.627 308.489 419.627V419.627Z" stroke="url(#paint129_linear_238_1066)"/>
<path fill-rule="evenodd" clip-rule="evenodd" d="M315.177 424.019C374.135 424.019 421.931 471.815 421.931 530.773C421.931 589.733 374.135 637.529 315.177 637.529C256.219 637.529 208.423 589.733 208.423 530.773C208.423 471.815 256.219 424.019 315.177 424.019V424.019Z" stroke="url(#paint130_linear_238_1066)"/>
<path fill-rule="evenodd" clip-rule="evenodd" d="M321.869 428.41C380.827 428.41 428.623 476.207 428.623 535.164C428.623 594.125 380.827 641.921 321.869 641.921C262.912 641.921 215.115 594.125 215.115 535.164C215.115 476.207 262.912 428.41 321.869 428.41Z" stroke="url(#paint131_linear_238_1066)"/>
<path fill-rule="evenodd" clip-rule="evenodd" d="M328.56 432.806C387.518 432.806 435.311 480.602 435.311 539.557C435.311 598.518 387.518 646.314 328.56 646.314C269.6 646.314 221.806 598.518 221.806 539.557C221.806 480.602 269.6 432.806 328.56 432.806V432.806Z" stroke="url(#paint132_linear_238_1066)"/>
<path fill-rule="evenodd" clip-rule="evenodd" d="M335.253 437.198C394.213 437.198 442.006 484.994 442.006 543.949C442.006 602.909 394.213 650.705 335.253 650.705C276.295 650.705 228.499 602.909 228.499 543.949C228.499 484.994 276.295 437.198 335.253 437.198V437.198Z" stroke="url(#paint133_linear_238_1066)"/>
<path fill-rule="evenodd" clip-rule="evenodd" d="M341.941 441.589C400.901 441.589 448.695 489.386 448.695 548.343C448.695 607.301 400.901 655.097 341.941 655.097C282.983 655.097 235.187 607.301 235.187 548.343C235.187 489.386 282.983 441.589 341.941 441.589V441.589Z" stroke="url(#paint134_linear_238_1066)"/>
<path fill-rule="evenodd" clip-rule="evenodd" d="M348.635 445.981C407.592 445.981 455.388 493.777 455.388 552.733C455.388 611.691 407.592 659.487 348.635 659.487C289.674 659.487 241.881 611.691 241.881 552.733C241.881 493.776 289.674 445.979 348.635 445.979V445.981Z" stroke="url(#paint135_linear_238_1066)"/>
<path fill-rule="evenodd" clip-rule="evenodd" d="M355.324 450.371C414.282 450.371 462.078 498.167 462.078 557.125C462.078 616.085 414.282 663.882 355.324 663.882C296.364 663.882 248.57 616.085 248.57 557.125C248.57 498.167 296.364 450.371 355.324 450.371V450.371Z" stroke="url(#paint136_linear_238_1066)"/>
<path fill-rule="evenodd" clip-rule="evenodd" d="M362.018 454.767C420.974 454.767 468.769 502.56 468.769 561.518C468.769 620.478 420.974 668.275 362.018 668.275C303.056 668.275 255.262 620.478 255.262 561.518C255.262 502.56 303.056 454.767 362.016 454.767H362.018Z" stroke="url(#paint137_linear_238_1066)"/>
<path fill-rule="evenodd" clip-rule="evenodd" d="M368.709 459.158C427.666 459.158 475.46 506.955 475.46 565.909C475.46 624.87 427.666 672.666 368.709 672.666C309.748 672.666 261.955 624.87 261.955 565.909C261.955 506.955 309.748 459.158 368.709 459.158V459.158Z" stroke="url(#paint138_linear_238_1066)"/>
<path fill-rule="evenodd" clip-rule="evenodd" d="M375.398 463.55C434.356 463.55 482.149 511.346 482.149 570.301C482.149 629.261 434.356 677.058 375.398 677.058C316.438 677.058 268.644 629.261 268.644 570.301C268.644 511.346 316.438 463.55 375.398 463.55Z" stroke="url(#paint139_linear_238_1066)"/>
<path fill-rule="evenodd" clip-rule="evenodd" d="M382.09 467.941C441.051 467.941 488.844 515.738 488.844 574.695C488.844 633.653 441.051 681.449 382.09 681.449C323.133 681.449 275.337 633.653 275.337 574.695C275.337 515.738 323.133 467.941 382.09 467.941Z" stroke="url(#paint140_linear_238_1066)"/>
<path fill-rule="evenodd" clip-rule="evenodd" d="M388.779 472.332C447.739 472.332 495.533 520.128 495.533 579.086C495.533 638.043 447.739 685.839 388.779 685.839C329.821 685.839 282.025 638.043 282.025 579.086C282.025 520.128 329.821 472.332 388.779 472.332V472.332Z" stroke="url(#paint141_linear_238_1066)"/>
<path fill-rule="evenodd" clip-rule="evenodd" d="M395.471 476.726C454.431 476.726 502.225 524.522 502.225 583.48C502.225 642.44 454.431 690.237 395.471 690.237C336.514 690.237 288.717 642.44 288.717 583.48C288.717 524.522 336.514 476.726 395.471 476.726Z" stroke="url(#paint142_linear_238_1066)"/>
<path fill-rule="evenodd" clip-rule="evenodd" d="M402.161 481.117C461.121 481.117 508.915 528.914 508.915 587.871C508.915 646.832 461.121 694.628 402.161 694.628C343.203 694.628 295.41 646.832 295.41 587.871C295.41 528.914 343.203 481.117 402.161 481.117V481.117Z" stroke="url(#paint143_linear_238_1066)"/>
<path fill-rule="evenodd" clip-rule="evenodd" d="M408.854 485.51C467.812 485.51 515.606 533.307 515.606 592.262C515.606 651.222 467.812 699.018 408.854 699.018C349.894 699.018 302.1 651.222 302.1 592.262C302.1 533.307 349.894 485.51 408.854 485.51V485.51Z" stroke="url(#paint144_linear_238_1066)"/>
<path fill-rule="evenodd" clip-rule="evenodd" d="M415.545 489.902C474.501 489.902 522.296 537.698 522.296 596.653C522.296 655.614 474.501 703.41 415.545 703.41C356.584 703.41 308.79 655.614 308.79 596.653C308.79 537.698 356.583 489.902 415.544 489.902H415.545Z" stroke="url(#paint145_linear_238_1066)"/>
<path fill-rule="evenodd" clip-rule="evenodd" d="M422.236 494.296C481.194 494.296 528.987 542.093 528.987 601.05C528.987 660.008 481.194 707.804 422.236 707.804C363.276 707.804 315.482 660.008 315.482 601.05C315.482 542.093 363.276 494.296 422.236 494.296V494.296Z" stroke="url(#paint146_linear_238_1066)"/>
<path fill-rule="evenodd" clip-rule="evenodd" d="M428.927 498.687C487.889 498.687 535.682 546.483 535.682 605.44C535.682 664.398 487.889 712.194 428.928 712.194C369.968 712.194 322.175 664.398 322.175 605.44C322.175 546.483 369.968 498.687 428.928 498.687H428.927Z" stroke="url(#paint147_linear_238_1066)"/>
<path fill-rule="evenodd" clip-rule="evenodd" d="M435.617 503.078C494.577 503.078 542.371 550.874 542.371 609.832C542.371 668.792 494.577 716.589 435.617 716.589C376.656 716.589 328.863 668.792 328.863 609.832C328.863 550.874 376.656 503.078 435.617 503.078Z" stroke="url(#paint148_linear_238_1066)"/>
<path fill-rule="evenodd" clip-rule="evenodd" d="M442.309 507.47C501.269 507.47 549.063 555.266 549.063 614.224C549.063 673.184 501.269 720.98 442.309 720.98C383.351 720.98 335.555 673.184 335.555 614.224C335.555 555.266 383.351 507.47 442.309 507.47V507.47Z" stroke="url(#paint149_linear_238_1066)"/>
<path fill-rule="evenodd" clip-rule="evenodd" d="M448.999 511.863C507.959 511.863 555.752 559.659 555.752 618.614C555.752 677.574 507.959 725.37 448.999 725.37C390.041 725.37 342.247 677.574 342.247 618.614C342.247 559.659 390.041 511.863 448.999 511.863Z" stroke="url(#paint150_linear_238_1066)"/>
<defs>
<linearGradient id="paint0_linear_238_1066" x1="381.221" y1="125.508" x2="26.988" y2="515.091" gradientUnits="userSpaceOnUse">
<stop stop-color="#0080FF" stop-opacity="0"/>
<stop offset="1" stop-color="#0080FF" stop-opacity="0.7"/>
</linearGradient>
<linearGradient id="paint1_linear_238_1066" x1="387.691" y1="130.078" x2="33.4577" y2="519.656" gradientUnits="userSpaceOnUse">
<stop stop-color="#0080FF" stop-opacity="0"/>
<stop offset="1" stop-color="#0080FF" stop-opacity="0.7"/>
</linearGradient>
<linearGradient id="paint2_linear_238_1066" x1="394.162" y1="134.642" x2="39.9294" y2="524.225" gradientUnits="userSpaceOnUse">
<stop stop-color="#0080FF" stop-opacity="0"/>
<stop offset="1" stop-color="#0080FF" stop-opacity="0.7"/>
</linearGradient>
<linearGradient id="paint3_linear_238_1066" x1="400.632" y1="139.211" x2="46.3992" y2="528.795" gradientUnits="userSpaceOnUse">
<stop stop-color="#0080FF" stop-opacity="0"/>
<stop offset="1" stop-color="#0080FF" stop-opacity="0.7"/>
</linearGradient>
<linearGradient id="paint4_linear_238_1066" x1="407.102" y1="143.777" x2="52.8692" y2="533.36" gradientUnits="userSpaceOnUse">
<stop stop-color="#0080FF" stop-opacity="0"/>
<stop offset="1" stop-color="#0080FF" stop-opacity="0.7"/>
</linearGradient>
<linearGradient id="paint5_linear_238_1066" x1="413.572" y1="148.344" x2="59.3392" y2="537.927" gradientUnits="userSpaceOnUse">
<stop stop-color="#0080FF" stop-opacity="0"/>
<stop offset="1" stop-color="#0080FF" stop-opacity="0.7"/>
</linearGradient>
<linearGradient id="paint6_linear_238_1066" x1="420.042" y1="152.911" x2="65.8092" y2="542.494" gradientUnits="userSpaceOnUse">
<stop stop-color="#0080FF" stop-opacity="0"/>
<stop offset="1" stop-color="#0080FF" stop-opacity="0.7"/>
</linearGradient>
<linearGradient id="paint7_linear_238_1066" x1="426.512" y1="157.478" x2="72.2791" y2="547.061" gradientUnits="userSpaceOnUse">
<stop stop-color="#0080FF" stop-opacity="0"/>
<stop offset="1" stop-color="#0080FF" stop-opacity="0.7"/>
</linearGradient>
<linearGradient id="paint8_linear_238_1066" x1="432.982" y1="162.044" x2="78.7492" y2="551.627" gradientUnits="userSpaceOnUse">
<stop stop-color="#0080FF" stop-opacity="0"/>
<stop offset="1" stop-color="#0080FF" stop-opacity="0.7"/>
</linearGradient>
<linearGradient id="paint9_linear_238_1066" x1="439.452" y1="166.613" x2="85.219" y2="556.197" gradientUnits="userSpaceOnUse">
<stop stop-color="#0080FF" stop-opacity="0"/>
<stop offset="1" stop-color="#0080FF" stop-opacity="0.7"/>
</linearGradient>
<linearGradient id="paint10_linear_238_1066" x1="445.919" y1="171.177" x2="91.6861" y2="560.756" gradientUnits="userSpaceOnUse">
<stop stop-color="#0080FF" stop-opacity="0"/>
<stop offset="1" stop-color="#0080FF" stop-opacity="0.7"/>
</linearGradient>
<linearGradient id="paint11_linear_238_1066" x1="452.393" y1="175.747" x2="98.1603" y2="565.331" gradientUnits="userSpaceOnUse">
<stop stop-color="#0080FF" stop-opacity="0"/>
<stop offset="1" stop-color="#0080FF" stop-opacity="0.7"/>
</linearGradient>
<linearGradient id="paint12_linear_238_1066" x1="458.86" y1="180.313" x2="104.627" y2="569.896" gradientUnits="userSpaceOnUse">
<stop stop-color="#0080FF" stop-opacity="0"/>
<stop offset="1" stop-color="#0080FF" stop-opacity="0.7"/>
</linearGradient>
<linearGradient id="paint13_linear_238_1066" x1="465.329" y1="184.88" x2="111.096" y2="574.459" gradientUnits="userSpaceOnUse">
<stop stop-color="#0080FF" stop-opacity="0"/>
<stop offset="1" stop-color="#0080FF" stop-opacity="0.7"/>
</linearGradient>
<linearGradient id="paint14_linear_238_1066" x1="471.799" y1="189.447" x2="117.566" y2="579.026" gradientUnits="userSpaceOnUse">
<stop stop-color="#0080FF" stop-opacity="0"/>
<stop offset="1" stop-color="#0080FF" stop-opacity="0.7"/>
</linearGradient>
<linearGradient id="paint15_linear_238_1066" x1="478.268" y1="194.015" x2="124.035" y2="583.594" gradientUnits="userSpaceOnUse">
<stop stop-color="#0080FF" stop-opacity="0"/>
<stop offset="1" stop-color="#0080FF" stop-opacity="0.7"/>
</linearGradient>
<linearGradient id="paint16_linear_238_1066" x1="484.74" y1="198.579" x2="130.507" y2="588.163" gradientUnits="userSpaceOnUse">
<stop stop-color="#0080FF" stop-opacity="0"/>
<stop offset="1" stop-color="#0080FF" stop-opacity="0.7"/>
</linearGradient>
<linearGradient id="paint17_linear_238_1066" x1="491.209" y1="203.149" x2="136.976" y2="592.732" gradientUnits="userSpaceOnUse">
<stop stop-color="#0080FF" stop-opacity="0"/>
<stop offset="1" stop-color="#0080FF" stop-opacity="0.7"/>
</linearGradient>
<linearGradient id="paint18_linear_238_1066" x1="497.679" y1="207.713" x2="143.446" y2="597.292" gradientUnits="userSpaceOnUse">
<stop stop-color="#0080FF" stop-opacity="0"/>
<stop offset="1" stop-color="#0080FF" stop-opacity="0.7"/>
</linearGradient>
<linearGradient id="paint19_linear_238_1066" x1="504.148" y1="212.281" x2="149.914" y2="601.86" gradientUnits="userSpaceOnUse">
<stop stop-color="#0080FF" stop-opacity="0"/>
<stop offset="1" stop-color="#0080FF" stop-opacity="0.7"/>
</linearGradient>
<linearGradient id="paint20_linear_238_1066" x1="510.622" y1="216.848" x2="156.389" y2="606.432" gradientUnits="userSpaceOnUse">
<stop stop-color="#0080FF" stop-opacity="0"/>
<stop offset="1" stop-color="#0080FF" stop-opacity="0.7"/>
</linearGradient>
<linearGradient id="paint21_linear_238_1066" x1="517.089" y1="221.415" x2="162.856" y2="610.999" gradientUnits="userSpaceOnUse">
<stop stop-color="#0080FF" stop-opacity="0"/>
<stop offset="1" stop-color="#0080FF" stop-opacity="0.7"/>
</linearGradient>
<linearGradient id="paint22_linear_238_1066" x1="523.56" y1="225.985" x2="169.327" y2="615.564" gradientUnits="userSpaceOnUse">
<stop stop-color="#0080FF" stop-opacity="0"/>
<stop offset="1" stop-color="#0080FF" stop-opacity="0.7"/>
</linearGradient>
<linearGradient id="paint23_linear_238_1066" x1="530.028" y1="230.551" x2="175.794" y2="620.13" gradientUnits="userSpaceOnUse">
<stop stop-color="#0080FF" stop-opacity="0"/>
<stop offset="1" stop-color="#0080FF" stop-opacity="0.7"/>
</linearGradient>
<linearGradient id="paint24_linear_238_1066" x1="536.498" y1="235.118" x2="182.264" y2="624.694" gradientUnits="userSpaceOnUse">
<stop stop-color="#0080FF" stop-opacity="0"/>
<stop offset="1" stop-color="#0080FF" stop-opacity="0.7"/>
</linearGradient>
<linearGradient id="paint25_linear_238_1066" x1="542.969" y1="239.685" x2="188.736" y2="629.268" gradientUnits="userSpaceOnUse">
<stop stop-color="#0080FF" stop-opacity="0"/>
<stop offset="1" stop-color="#0080FF" stop-opacity="0.7"/>
</linearGradient>
<linearGradient id="paint26_linear_238_1066" x1="549.44" y1="244.252" x2="195.207" y2="633.835" gradientUnits="userSpaceOnUse">
<stop stop-color="#0080FF" stop-opacity="0"/>
<stop offset="1" stop-color="#0080FF" stop-opacity="0.7"/>
</linearGradient>
<linearGradient id="paint27_linear_238_1066" x1="555.909" y1="248.817" x2="201.676" y2="638.396" gradientUnits="userSpaceOnUse">
<stop stop-color="#0080FF" stop-opacity="0"/>
<stop offset="1" stop-color="#0080FF" stop-opacity="0.7"/>
</linearGradient>
<linearGradient id="paint28_linear_238_1066" x1="562.376" y1="253.387" x2="208.143" y2="642.966" gradientUnits="userSpaceOnUse">
<stop stop-color="#0080FF" stop-opacity="0"/>
<stop offset="1" stop-color="#0080FF" stop-opacity="0.7"/>
</linearGradient>
<linearGradient id="paint29_linear_238_1066" x1="568.85" y1="257.951" x2="214.617" y2="647.534" gradientUnits="userSpaceOnUse">
<stop stop-color="#0080FF" stop-opacity="0"/>
<stop offset="1" stop-color="#0080FF" stop-opacity="0.7"/>
</linearGradient>
<linearGradient id="paint30_linear_238_1066" x1="575.318" y1="262.521" x2="221.084" y2="652.1" gradientUnits="userSpaceOnUse">
<stop stop-color="#0080FF" stop-opacity="0"/>
<stop offset="1" stop-color="#0080FF" stop-opacity="0.7"/>
</linearGradient>
<linearGradient id="paint31_linear_238_1066" x1="581.789" y1="267.086" x2="227.556" y2="656.665" gradientUnits="userSpaceOnUse">
<stop stop-color="#0080FF" stop-opacity="0"/>
<stop offset="1" stop-color="#0080FF" stop-opacity="0.7"/>
</linearGradient>
<linearGradient id="paint32_linear_238_1066" x1="588.257" y1="271.653" x2="234.024" y2="661.234" gradientUnits="userSpaceOnUse">
<stop stop-color="#0080FF" stop-opacity="0"/>
<stop offset="1" stop-color="#0080FF" stop-opacity="0.7"/>
</linearGradient>
<linearGradient id="paint33_linear_238_1066" x1="594.727" y1="276.22" x2="240.494" y2="665.799" gradientUnits="userSpaceOnUse">
<stop stop-color="#0080FF" stop-opacity="0"/>
<stop offset="1" stop-color="#0080FF" stop-opacity="0.7"/>
</linearGradient>
<linearGradient id="paint34_linear_238_1066" x1="601.197" y1="280.789" x2="246.964" y2="670.372" gradientUnits="userSpaceOnUse">
<stop stop-color="#0080FF" stop-opacity="0"/>
<stop offset="1" stop-color="#0080FF" stop-opacity="0.7"/>
</linearGradient>
<linearGradient id="paint35_linear_238_1066" x1="607.669" y1="285.353" x2="253.436" y2="674.932" gradientUnits="userSpaceOnUse">
<stop stop-color="#0080FF" stop-opacity="0"/>
<stop offset="1" stop-color="#0080FF" stop-opacity="0.7"/>
</linearGradient>
<linearGradient id="paint36_linear_238_1066" x1="614.137" y1="289.923" x2="259.904" y2="679.501" gradientUnits="userSpaceOnUse">
<stop stop-color="#0080FF" stop-opacity="0"/>
<stop offset="1" stop-color="#0080FF" stop-opacity="0.7"/>
</linearGradient>
<linearGradient id="paint37_linear_238_1066" x1="620.607" y1="294.487" x2="266.374" y2="684.066" gradientUnits="userSpaceOnUse">
<stop stop-color="#0080FF" stop-opacity="0"/>
<stop offset="1" stop-color="#0080FF" stop-opacity="0.7"/>
</linearGradient>
<linearGradient id="paint38_linear_238_1066" x1="627.079" y1="299.055" x2="272.846" y2="688.639" gradientUnits="userSpaceOnUse">
<stop stop-color="#0080FF" stop-opacity="0"/>
<stop offset="1" stop-color="#0080FF" stop-opacity="0.7"/>
</linearGradient>
<linearGradient id="paint39_linear_238_1066" x1="633.549" y1="303.622" x2="279.315" y2="693.201" gradientUnits="userSpaceOnUse">
<stop stop-color="#0080FF" stop-opacity="0"/>
<stop offset="1" stop-color="#0080FF" stop-opacity="0.7"/>
</linearGradient>
<linearGradient id="paint40_linear_238_1066" x1="640.017" y1="308.189" x2="285.784" y2="697.768" gradientUnits="userSpaceOnUse">
<stop stop-color="#0080FF" stop-opacity="0"/>
<stop offset="1" stop-color="#0080FF" stop-opacity="0.7"/>
</linearGradient>
<linearGradient id="paint41_linear_238_1066" x1="646.484" y1="312.756" x2="292.251" y2="702.335" gradientUnits="userSpaceOnUse">
<stop stop-color="#0080FF" stop-opacity="0"/>
<stop offset="1" stop-color="#0080FF" stop-opacity="0.7"/>
</linearGradient>
<linearGradient id="paint42_linear_238_1066" x1="652.956" y1="317.324" x2="298.722" y2="706.903" gradientUnits="userSpaceOnUse">
<stop stop-color="#0080FF" stop-opacity="0"/>
<stop offset="1" stop-color="#0080FF" stop-opacity="0.7"/>
</linearGradient>
<linearGradient id="paint43_linear_238_1066" x1="659.427" y1="321.889" x2="305.194" y2="711.472" gradientUnits="userSpaceOnUse">
<stop stop-color="#0080FF" stop-opacity="0"/>
<stop offset="1" stop-color="#0080FF" stop-opacity="0.7"/>
</linearGradient>
<linearGradient id="paint44_linear_238_1066" x1="665.897" y1="326.458" x2="311.664" y2="716.037" gradientUnits="userSpaceOnUse">
<stop stop-color="#0080FF" stop-opacity="0"/>
<stop offset="1" stop-color="#0080FF" stop-opacity="0.7"/>
</linearGradient>
<linearGradient id="paint45_linear_238_1066" x1="672.366" y1="331.024" x2="318.132" y2="720.603" gradientUnits="userSpaceOnUse">
<stop stop-color="#0080FF" stop-opacity="0"/>
<stop offset="1" stop-color="#0080FF" stop-opacity="0.7"/>
</linearGradient>
<linearGradient id="paint46_linear_238_1066" x1="678.837" y1="335.591" x2="324.604" y2="725.172" gradientUnits="userSpaceOnUse">
<stop stop-color="#0080FF" stop-opacity="0"/>
<stop offset="1" stop-color="#0080FF" stop-opacity="0.7"/>
</linearGradient>
<linearGradient id="paint47_linear_238_1066" x1="685.304" y1="340.158" x2="331.071" y2="729.737" gradientUnits="userSpaceOnUse">
<stop stop-color="#0080FF" stop-opacity="0"/>
<stop offset="1" stop-color="#0080FF" stop-opacity="0.7"/>
</linearGradient>
<linearGradient id="paint48_linear_238_1066" x1="691.777" y1="344.725" x2="337.544" y2="734.308" gradientUnits="userSpaceOnUse">
<stop stop-color="#0080FF" stop-opacity="0"/>
<stop offset="1" stop-color="#0080FF" stop-opacity="0.7"/>
</linearGradient>
<linearGradient id="paint49_linear_238_1066" x1="694.898" y1="356.75" x2="340.665" y2="746.329" gradientUnits="userSpaceOnUse">
<stop stop-color="#0080FF" stop-opacity="0"/>
<stop offset="1" stop-color="#0080FF" stop-opacity="0.7"/>
</linearGradient>
<linearGradient id="paint50_linear_238_1066" x1="685.081" y1="359.642" x2="330.848" y2="749.226" gradientUnits="userSpaceOnUse">
<stop stop-color="#0080FF" stop-opacity="0"/>
<stop offset="1" stop-color="#0080FF" stop-opacity="0.7"/>
</linearGradient>
<linearGradient id="paint51_linear_238_1066" x1="675.26" y1="362.535" x2="321.027" y2="752.117" gradientUnits="userSpaceOnUse">
<stop stop-color="#0080FF" stop-opacity="0"/>
<stop offset="1" stop-color="#0080FF" stop-opacity="0.7"/>
</linearGradient>
<linearGradient id="paint52_linear_238_1066" x1="665.441" y1="365.43" x2="311.208" y2="755.009" gradientUnits="userSpaceOnUse">
<stop stop-color="#0080FF" stop-opacity="0"/>
<stop offset="1" stop-color="#0080FF" stop-opacity="0.7"/>
</linearGradient>
<linearGradient id="paint53_linear_238_1066" x1="655.621" y1="368.32" x2="301.388" y2="757.904" gradientUnits="userSpaceOnUse">
<stop stop-color="#0080FF" stop-opacity="0"/>
<stop offset="1" stop-color="#0080FF" stop-opacity="0.7"/>
</linearGradient>
<linearGradient id="paint54_linear_238_1066" x1="645.799" y1="371.212" x2="291.566" y2="760.791" gradientUnits="userSpaceOnUse">
<stop stop-color="#0080FF" stop-opacity="0"/>
<stop offset="1" stop-color="#0080FF" stop-opacity="0.7"/>
</linearGradient>
<linearGradient id="paint55_linear_238_1066" x1="635.982" y1="374.105" x2="281.749" y2="763.684" gradientUnits="userSpaceOnUse">
<stop stop-color="#0080FF" stop-opacity="0"/>
<stop offset="1" stop-color="#0080FF" stop-opacity="0.7"/>
</linearGradient>
<linearGradient id="paint56_linear_238_1066" x1="626.164" y1="376.997" x2="271.931" y2="766.581" gradientUnits="userSpaceOnUse">
<stop stop-color="#0080FF" stop-opacity="0"/>
<stop offset="1" stop-color="#0080FF" stop-opacity="0.7"/>
</linearGradient>
<linearGradient id="paint57_linear_238_1066" x1="616.343" y1="379.89" x2="262.109" y2="769.469" gradientUnits="userSpaceOnUse">
<stop stop-color="#0080FF" stop-opacity="0"/>
<stop offset="1" stop-color="#0080FF" stop-opacity="0.7"/>
</linearGradient>
<linearGradient id="paint58_linear_238_1066" x1="606.525" y1="382.784" x2="252.292" y2="772.362" gradientUnits="userSpaceOnUse">
<stop stop-color="#0080FF" stop-opacity="0"/>
<stop offset="1" stop-color="#0080FF" stop-opacity="0.7"/>
</linearGradient>
<linearGradient id="paint59_linear_238_1066" x1="596.707" y1="385.675" x2="242.475" y2="775.259" gradientUnits="userSpaceOnUse">
<stop stop-color="#0080FF" stop-opacity="0"/>
<stop offset="1" stop-color="#0080FF" stop-opacity="0.7"/>
</linearGradient>
<linearGradient id="paint60_linear_238_1066" x1="586.886" y1="388.566" x2="232.653" y2="778.145" gradientUnits="userSpaceOnUse">
<stop stop-color="#0080FF" stop-opacity="0"/>
<stop offset="1" stop-color="#0080FF" stop-opacity="0.7"/>
</linearGradient>
<linearGradient id="paint61_linear_238_1066" x1="577.068" y1="391.458" x2="222.835" y2="781.037" gradientUnits="userSpaceOnUse">
<stop stop-color="#0080FF" stop-opacity="0"/>
<stop offset="1" stop-color="#0080FF" stop-opacity="0.7"/>
</linearGradient>
<linearGradient id="paint62_linear_238_1066" x1="567.25" y1="394.354" x2="213.017" y2="783.937" gradientUnits="userSpaceOnUse">
<stop stop-color="#0080FF" stop-opacity="0"/>
<stop offset="1" stop-color="#0080FF" stop-opacity="0.7"/>
</linearGradient>
<linearGradient id="paint63_linear_238_1066" x1="557.429" y1="397.245" x2="203.196" y2="786.824" gradientUnits="userSpaceOnUse">
<stop stop-color="#0080FF" stop-opacity="0"/>
<stop offset="1" stop-color="#0080FF" stop-opacity="0.7"/>
</linearGradient>
<linearGradient id="paint64_linear_238_1066" x1="547.612" y1="400.136" x2="193.378" y2="789.715" gradientUnits="userSpaceOnUse">
<stop stop-color="#0080FF" stop-opacity="0"/>
<stop offset="1" stop-color="#0080FF" stop-opacity="0.7"/>
</linearGradient>
<linearGradient id="paint65_linear_238_1066" x1="537.793" y1="403.028" x2="183.56" y2="792.611" gradientUnits="userSpaceOnUse">
<stop stop-color="#0080FF" stop-opacity="0"/>
<stop offset="1" stop-color="#0080FF" stop-opacity="0.7"/>
</linearGradient>
<linearGradient id="paint66_linear_238_1066" x1="527.973" y1="405.924" x2="173.739" y2="795.502" gradientUnits="userSpaceOnUse">
<stop stop-color="#0080FF" stop-opacity="0"/>
<stop offset="1" stop-color="#0080FF" stop-opacity="0.7"/>
</linearGradient>
<linearGradient id="paint67_linear_238_1066" x1="518.155" y1="408.815" x2="163.922" y2="798.394" gradientUnits="userSpaceOnUse">
<stop stop-color="#0080FF" stop-opacity="0"/>
<stop offset="1" stop-color="#0080FF" stop-opacity="0.7"/>
</linearGradient>
<linearGradient id="paint68_linear_238_1066" x1="508.336" y1="411.706" x2="154.103" y2="801.289" gradientUnits="userSpaceOnUse">
<stop stop-color="#0080FF" stop-opacity="0"/>
<stop offset="1" stop-color="#0080FF" stop-opacity="0.7"/>
</linearGradient>
<linearGradient id="paint69_linear_238_1066" x1="498.516" y1="414.598" x2="144.283" y2="804.176" gradientUnits="userSpaceOnUse">
<stop stop-color="#0080FF" stop-opacity="0"/>
<stop offset="1" stop-color="#0080FF" stop-opacity="0.7"/>
</linearGradient>
<linearGradient id="paint70_linear_238_1066" x1="488.699" y1="417.491" x2="134.465" y2="807.07" gradientUnits="userSpaceOnUse">
<stop stop-color="#0080FF" stop-opacity="0"/>
<stop offset="1" stop-color="#0080FF" stop-opacity="0.7"/>
</linearGradient>
<linearGradient id="paint71_linear_238_1066" x1="478.88" y1="420.385" x2="124.647" y2="809.969" gradientUnits="userSpaceOnUse">
<stop stop-color="#0080FF" stop-opacity="0"/>
<stop offset="1" stop-color="#0080FF" stop-opacity="0.7"/>
</linearGradient>
<linearGradient id="paint72_linear_238_1066" x1="469.059" y1="423.276" x2="114.826" y2="812.855" gradientUnits="userSpaceOnUse">
<stop stop-color="#0080FF" stop-opacity="0"/>
<stop offset="1" stop-color="#0080FF" stop-opacity="0.7"/>
</linearGradient>
<linearGradient id="paint73_linear_238_1066" x1="459.241" y1="426.169" x2="105.007" y2="815.748" gradientUnits="userSpaceOnUse">
<stop stop-color="#0080FF" stop-opacity="0"/>
<stop offset="1" stop-color="#0080FF" stop-opacity="0.7"/>
</linearGradient>
<linearGradient id="paint74_linear_238_1066" x1="449.423" y1="429.061" x2="95.1898" y2="818.644" gradientUnits="userSpaceOnUse">
<stop stop-color="#0080FF" stop-opacity="0"/>
<stop offset="1" stop-color="#0080FF" stop-opacity="0.7"/>
</linearGradient>
<linearGradient id="paint75_linear_238_1066" x1="439.603" y1="431.954" x2="85.3693" y2="821.533" gradientUnits="userSpaceOnUse">
<stop stop-color="#0080FF" stop-opacity="0"/>
<stop offset="1" stop-color="#0080FF" stop-opacity="0.7"/>
</linearGradient>
<linearGradient id="paint76_linear_238_1066" x1="429.785" y1="434.846" x2="75.5521" y2="824.429" gradientUnits="userSpaceOnUse">
<stop stop-color="#0080FF" stop-opacity="0"/>
<stop offset="1" stop-color="#0080FF" stop-opacity="0.7"/>
</linearGradient>
<linearGradient id="paint77_linear_238_1066" x1="419.966" y1="437.739" x2="65.7332" y2="827.322" gradientUnits="userSpaceOnUse">
<stop stop-color="#0080FF" stop-opacity="0"/>
<stop offset="1" stop-color="#0080FF" stop-opacity="0.7"/>
</linearGradient>
<linearGradient id="paint78_linear_238_1066" x1="410.149" y1="440.631" x2="55.9157" y2="830.214" gradientUnits="userSpaceOnUse">
<stop stop-color="#0080FF" stop-opacity="0"/>
<stop offset="1" stop-color="#0080FF" stop-opacity="0.7"/>
</linearGradient>
<linearGradient id="paint79_linear_238_1066" x1="400.328" y1="443.521" x2="46.0956" y2="833.105" gradientUnits="userSpaceOnUse">
<stop stop-color="#0080FF" stop-opacity="0"/>
<stop offset="1" stop-color="#0080FF" stop-opacity="0.7"/>
</linearGradient>
<linearGradient id="paint80_linear_238_1066" x1="390.511" y1="446.416" x2="36.2781" y2="835.999" gradientUnits="userSpaceOnUse">
<stop stop-color="#0080FF" stop-opacity="0"/>
<stop offset="1" stop-color="#0080FF" stop-opacity="0.7"/>
</linearGradient>
<linearGradient id="paint81_linear_238_1066" x1="380.692" y1="449.309" x2="26.459" y2="838.892" gradientUnits="userSpaceOnUse">
<stop stop-color="#0080FF" stop-opacity="0"/>
<stop offset="1" stop-color="#0080FF" stop-opacity="0.7"/>
</linearGradient>
<linearGradient id="paint82_linear_238_1066" x1="370.869" y1="452.201" x2="16.636" y2="841.784" gradientUnits="userSpaceOnUse">
<stop stop-color="#0080FF" stop-opacity="0"/>
<stop offset="1" stop-color="#0080FF" stop-opacity="0.7"/>
</linearGradient>
<linearGradient id="paint83_linear_238_1066" x1="361.051" y1="455.091" x2="6.81853" y2="844.675" gradientUnits="userSpaceOnUse">
<stop stop-color="#0080FF" stop-opacity="0"/>
<stop offset="1" stop-color="#0080FF" stop-opacity="0.7"/>
</linearGradient>
<linearGradient id="paint84_linear_238_1066" x1="351.233" y1="457.986" x2="-3.00027" y2="847.569" gradientUnits="userSpaceOnUse">
<stop stop-color="#0080FF" stop-opacity="0"/>
<stop offset="1" stop-color="#0080FF" stop-opacity="0.7"/>
</linearGradient>
<linearGradient id="paint85_linear_238_1066" x1="341.412" y1="460.879" x2="-12.8206" y2="850.462" gradientUnits="userSpaceOnUse">
<stop stop-color="#0080FF" stop-opacity="0"/>
<stop offset="1" stop-color="#0080FF" stop-opacity="0.7"/>
</linearGradient>
<linearGradient id="paint86_linear_238_1066" x1="331.595" y1="463.771" x2="-22.6382" y2="853.354" gradientUnits="userSpaceOnUse">
<stop stop-color="#0080FF" stop-opacity="0"/>
<stop offset="1" stop-color="#0080FF" stop-opacity="0.7"/>
</linearGradient>
<linearGradient id="paint87_linear_238_1066" x1="321.776" y1="466.661" x2="-32.457" y2="856.245" gradientUnits="userSpaceOnUse">
<stop stop-color="#0080FF" stop-opacity="0"/>
<stop offset="1" stop-color="#0080FF" stop-opacity="0.7"/>
</linearGradient>
<linearGradient id="paint88_linear_238_1066" x1="311.956" y1="469.554" x2="-42.2774" y2="859.138" gradientUnits="userSpaceOnUse">
<stop stop-color="#0080FF" stop-opacity="0"/>
<stop offset="1" stop-color="#0080FF" stop-opacity="0.7"/>
</linearGradient>
<linearGradient id="paint89_linear_238_1066" x1="302.138" y1="472.449" x2="-52.095" y2="862.032" gradientUnits="userSpaceOnUse">
<stop stop-color="#0080FF" stop-opacity="0"/>
<stop offset="1" stop-color="#0080FF" stop-opacity="0.7"/>
</linearGradient>
<linearGradient id="paint90_linear_238_1066" x1="292.318" y1="475.339" x2="-61.9152" y2="864.923" gradientUnits="userSpaceOnUse">
<stop stop-color="#0080FF" stop-opacity="0"/>
<stop offset="1" stop-color="#0080FF" stop-opacity="0.7"/>
</linearGradient>
<linearGradient id="paint91_linear_238_1066" x1="282.499" y1="478.231" x2="-71.7341" y2="867.815" gradientUnits="userSpaceOnUse">
<stop stop-color="#0080FF" stop-opacity="0"/>
<stop offset="1" stop-color="#0080FF" stop-opacity="0.7"/>
</linearGradient>
<linearGradient id="paint92_linear_238_1066" x1="272.681" y1="481.124" x2="-81.5516" y2="870.708" gradientUnits="userSpaceOnUse">
<stop stop-color="#0080FF" stop-opacity="0"/>
<stop offset="1" stop-color="#0080FF" stop-opacity="0.7"/>
</linearGradient>
<linearGradient id="paint93_linear_238_1066" x1="262.861" y1="484.019" x2="-91.3718" y2="873.602" gradientUnits="userSpaceOnUse">
<stop stop-color="#0080FF" stop-opacity="0"/>
<stop offset="1" stop-color="#0080FF" stop-opacity="0.7"/>
</linearGradient>
<linearGradient id="paint94_linear_238_1066" x1="253.044" y1="486.909" x2="-101.189" y2="876.493" gradientUnits="userSpaceOnUse">
<stop stop-color="#0080FF" stop-opacity="0"/>
<stop offset="1" stop-color="#0080FF" stop-opacity="0.7"/>
</linearGradient>
<linearGradient id="paint95_linear_238_1066" x1="243.225" y1="489.801" x2="-111.008" y2="879.385" gradientUnits="userSpaceOnUse">
<stop stop-color="#0080FF" stop-opacity="0"/>
<stop offset="1" stop-color="#0080FF" stop-opacity="0.7"/>
</linearGradient>
<linearGradient id="paint96_linear_238_1066" x1="233.404" y1="492.694" x2="-120.829" y2="882.278" gradientUnits="userSpaceOnUse">
<stop stop-color="#0080FF" stop-opacity="0"/>
<stop offset="1" stop-color="#0080FF" stop-opacity="0.7"/>
</linearGradient>
<linearGradient id="paint97_linear_238_1066" x1="223.587" y1="495.586" x2="-130.646" y2="885.17" gradientUnits="userSpaceOnUse">
<stop stop-color="#0080FF" stop-opacity="0"/>
<stop offset="1" stop-color="#0080FF" stop-opacity="0.7"/>
</linearGradient>
<linearGradient id="paint98_linear_238_1066" x1="213.768" y1="498.479" x2="-140.465" y2="888.063" gradientUnits="userSpaceOnUse">
<stop stop-color="#0080FF" stop-opacity="0"/>
<stop offset="1" stop-color="#0080FF" stop-opacity="0.7"/>
</linearGradient>
<linearGradient id="paint99_linear_238_1066" x1="203.948" y1="501.371" x2="-150.285" y2="890.955" gradientUnits="userSpaceOnUse">
<stop stop-color="#0080FF" stop-opacity="0"/>
<stop offset="1" stop-color="#0080FF" stop-opacity="0.7"/>
</linearGradient>
<linearGradient id="paint100_linear_238_1066" x1="210.639" y1="505.764" x2="-143.594" y2="895.348" gradientUnits="userSpaceOnUse">
<stop stop-color="#0080FF" stop-opacity="0"/>
<stop offset="1" stop-color="#0080FF" stop-opacity="0.7"/>
</linearGradient>
<linearGradient id="paint101_linear_238_1066" x1="217.331" y1="510.154" x2="-136.902" y2="899.738" gradientUnits="userSpaceOnUse">
<stop stop-color="#0080FF" stop-opacity="0"/>
<stop offset="1" stop-color="#0080FF" stop-opacity="0.7"/>
</linearGradient>
<linearGradient id="paint102_linear_238_1066" x1="224.022" y1="514.546" x2="-130.211" y2="904.129" gradientUnits="userSpaceOnUse">
<stop stop-color="#0080FF" stop-opacity="0"/>
<stop offset="1" stop-color="#0080FF" stop-opacity="0.7"/>
</linearGradient>
<linearGradient id="paint103_linear_238_1066" x1="230.711" y1="518.942" x2="-123.522" y2="908.525" gradientUnits="userSpaceOnUse">
<stop stop-color="#0080FF" stop-opacity="0"/>
<stop offset="1" stop-color="#0080FF" stop-opacity="0.7"/>
</linearGradient>
<linearGradient id="paint104_linear_238_1066" x1="237.405" y1="523.332" x2="-116.828" y2="912.915" gradientUnits="userSpaceOnUse">
<stop stop-color="#0080FF" stop-opacity="0"/>
<stop offset="1" stop-color="#0080FF" stop-opacity="0.7"/>
</linearGradient>
<linearGradient id="paint105_linear_238_1066" x1="244.095" y1="527.723" x2="-110.138" y2="917.307" gradientUnits="userSpaceOnUse">
<stop stop-color="#0080FF" stop-opacity="0"/>
<stop offset="1" stop-color="#0080FF" stop-opacity="0.7"/>
</linearGradient>
<linearGradient id="paint106_linear_238_1066" x1="250.786" y1="532.116" x2="-103.447" y2="921.7" gradientUnits="userSpaceOnUse">
<stop stop-color="#0080FF" stop-opacity="0"/>
<stop offset="1" stop-color="#0080FF" stop-opacity="0.7"/>
</linearGradient>
<linearGradient id="paint107_linear_238_1066" x1="257.477" y1="536.508" x2="-96.7564" y2="926.091" gradientUnits="userSpaceOnUse">
<stop stop-color="#0080FF" stop-opacity="0"/>
<stop offset="1" stop-color="#0080FF" stop-opacity="0.7"/>
</linearGradient>
<linearGradient id="paint108_linear_238_1066" x1="264.169" y1="540.902" x2="-90.0639" y2="930.486" gradientUnits="userSpaceOnUse">
<stop stop-color="#0080FF" stop-opacity="0"/>
<stop offset="1" stop-color="#0080FF" stop-opacity="0.7"/>
</linearGradient>
<linearGradient id="paint109_linear_238_1066" x1="270.857" y1="545.294" x2="-83.3759" y2="934.877" gradientUnits="userSpaceOnUse">
<stop stop-color="#0080FF" stop-opacity="0"/>
<stop offset="1" stop-color="#0080FF" stop-opacity="0.7"/>
</linearGradient>
<linearGradient id="paint110_linear_238_1066" x1="277.549" y1="549.684" x2="-76.6835" y2="939.268" gradientUnits="userSpaceOnUse">
<stop stop-color="#0080FF" stop-opacity="0"/>
<stop offset="1" stop-color="#0080FF" stop-opacity="0.7"/>
</linearGradient>
<linearGradient id="paint111_linear_238_1066" x1="284.243" y1="554.076" x2="-69.9898" y2="943.659" gradientUnits="userSpaceOnUse">
<stop stop-color="#0080FF" stop-opacity="0"/>
<stop offset="1" stop-color="#0080FF" stop-opacity="0.7"/>
</linearGradient>
<linearGradient id="paint112_linear_238_1066" x1="290.933" y1="558.473" x2="-63.3078" y2="948.057" gradientUnits="userSpaceOnUse">
<stop stop-color="#0080FF" stop-opacity="0"/>
<stop offset="1" stop-color="#0080FF" stop-opacity="0.7"/>
</linearGradient>
<linearGradient id="paint113_linear_238_1066" x1="297.624" y1="562.863" x2="-56.6093" y2="952.446" gradientUnits="userSpaceOnUse">
<stop stop-color="#0080FF" stop-opacity="0"/>
<stop offset="1" stop-color="#0080FF" stop-opacity="0.7"/>
</linearGradient>
<linearGradient id="paint114_linear_238_1066" x1="304.315" y1="567.255" x2="-49.9184" y2="956.838" gradientUnits="userSpaceOnUse">
<stop stop-color="#0080FF" stop-opacity="0"/>
<stop offset="1" stop-color="#0080FF" stop-opacity="0.7"/>
</linearGradient>
<linearGradient id="paint115_linear_238_1066" x1="311.007" y1="571.646" x2="-43.2262" y2="961.23" gradientUnits="userSpaceOnUse">
<stop stop-color="#0080FF" stop-opacity="0"/>
<stop offset="1" stop-color="#0080FF" stop-opacity="0.7"/>
</linearGradient>
<linearGradient id="paint116_linear_238_1066" x1="317.695" y1="576.036" x2="-36.538" y2="965.62" gradientUnits="userSpaceOnUse">
<stop stop-color="#0080FF" stop-opacity="0"/>
<stop offset="1" stop-color="#0080FF" stop-opacity="0.7"/>
</linearGradient>
<linearGradient id="paint117_linear_238_1066" x1="324.387" y1="580.431" x2="-29.8456" y2="970.014" gradientUnits="userSpaceOnUse">
<stop stop-color="#0080FF" stop-opacity="0"/>
<stop offset="1" stop-color="#0080FF" stop-opacity="0.7"/>
</linearGradient>
<linearGradient id="paint118_linear_238_1066" x1="331.078" y1="584.825" x2="-23.1597" y2="974.409" gradientUnits="userSpaceOnUse">
<stop stop-color="#0080FF" stop-opacity="0"/>
<stop offset="1" stop-color="#0080FF" stop-opacity="0.7"/>
</linearGradient>
<linearGradient id="paint119_linear_238_1066" x1="337.77" y1="589.215" x2="-16.4625" y2="978.799" gradientUnits="userSpaceOnUse">
<stop stop-color="#0080FF" stop-opacity="0"/>
<stop offset="1" stop-color="#0080FF" stop-opacity="0.7"/>
</linearGradient>
<linearGradient id="paint120_linear_238_1066" x1="344.462" y1="593.607" x2="-9.77144" y2="983.19" gradientUnits="userSpaceOnUse">
<stop stop-color="#0080FF" stop-opacity="0"/>
<stop offset="1" stop-color="#0080FF" stop-opacity="0.7"/>
</linearGradient>
<linearGradient id="paint121_linear_238_1066" x1="351.152" y1="597.998" x2="-3.08052" y2="987.582" gradientUnits="userSpaceOnUse">
<stop stop-color="#0080FF" stop-opacity="0"/>
<stop offset="1" stop-color="#0080FF" stop-opacity="0.7"/>
</linearGradient>
<linearGradient id="paint122_linear_238_1066" x1="357.845" y1="602.391" x2="3.61174" y2="991.975" gradientUnits="userSpaceOnUse">
<stop stop-color="#0080FF" stop-opacity="0"/>
<stop offset="1" stop-color="#0080FF" stop-opacity="0.7"/>
</linearGradient>
<linearGradient id="paint123_linear_238_1066" x1="364.533" y1="606.783" x2="10.3" y2="996.366" gradientUnits="userSpaceOnUse">
<stop stop-color="#0080FF" stop-opacity="0"/>
<stop offset="1" stop-color="#0080FF" stop-opacity="0.7"/>
</linearGradient>
<linearGradient id="paint124_linear_238_1066" x1="371.225" y1="611.177" x2="16.9874" y2="1000.76" gradientUnits="userSpaceOnUse">
<stop stop-color="#0080FF" stop-opacity="0"/>
<stop offset="1" stop-color="#0080FF" stop-opacity="0.7"/>
</linearGradient>
<linearGradient id="paint125_linear_238_1066" x1="377.914" y1="615.567" x2="23.6803" y2="1005.15" gradientUnits="userSpaceOnUse">
<stop stop-color="#0080FF" stop-opacity="0"/>
<stop offset="1" stop-color="#0080FF" stop-opacity="0.7"/>
</linearGradient>
<linearGradient id="paint126_linear_238_1066" x1="384.608" y1="619.959" x2="30.3755" y2="1009.54" gradientUnits="userSpaceOnUse">
<stop stop-color="#0080FF" stop-opacity="0"/>
<stop offset="1" stop-color="#0080FF" stop-opacity="0.7"/>
</linearGradient>
<linearGradient id="paint127_linear_238_1066" x1="391.297" y1="624.353" x2="37.0637" y2="1013.94" gradientUnits="userSpaceOnUse">
<stop stop-color="#0080FF" stop-opacity="0"/>
<stop offset="1" stop-color="#0080FF" stop-opacity="0.7"/>
</linearGradient>
<linearGradient id="paint128_linear_238_1066" x1="397.99" y1="628.743" x2="43.7575" y2="1018.33" gradientUnits="userSpaceOnUse">
<stop stop-color="#0080FF" stop-opacity="0"/>
<stop offset="1" stop-color="#0080FF" stop-opacity="0.7"/>
</linearGradient>
<linearGradient id="paint129_linear_238_1066" x1="404.683" y1="633.135" x2="50.4497" y2="1022.72" gradientUnits="userSpaceOnUse">
<stop stop-color="#0080FF" stop-opacity="0"/>
<stop offset="1" stop-color="#0080FF" stop-opacity="0.7"/>
</linearGradient>
<linearGradient id="paint130_linear_238_1066" x1="411.371" y1="637.529" x2="57.1329" y2="1027.11" gradientUnits="userSpaceOnUse">
<stop stop-color="#0080FF" stop-opacity="0"/>
<stop offset="1" stop-color="#0080FF" stop-opacity="0.7"/>
</linearGradient>
<linearGradient id="paint131_linear_238_1066" x1="418.063" y1="641.921" x2="63.8251" y2="1031.5" gradientUnits="userSpaceOnUse">
<stop stop-color="#0080FF" stop-opacity="0"/>
<stop offset="1" stop-color="#0080FF" stop-opacity="0.7"/>
</linearGradient>
<linearGradient id="paint132_linear_238_1066" x1="424.751" y1="646.314" x2="70.5181" y2="1035.89" gradientUnits="userSpaceOnUse">
<stop stop-color="#0080FF" stop-opacity="0"/>
<stop offset="1" stop-color="#0080FF" stop-opacity="0.7"/>
</linearGradient>
<linearGradient id="paint133_linear_238_1066" x1="431.446" y1="650.706" x2="77.2134" y2="1040.29" gradientUnits="userSpaceOnUse">
<stop stop-color="#0080FF" stop-opacity="0"/>
<stop offset="1" stop-color="#0080FF" stop-opacity="0.7"/>
</linearGradient>
<linearGradient id="paint134_linear_238_1066" x1="438.135" y1="655.097" x2="83.9017" y2="1044.68" gradientUnits="userSpaceOnUse">
<stop stop-color="#0080FF" stop-opacity="0"/>
<stop offset="1" stop-color="#0080FF" stop-opacity="0.7"/>
</linearGradient>
<linearGradient id="paint135_linear_238_1066" x1="444.828" y1="659.487" x2="90.5953" y2="1049.07" gradientUnits="userSpaceOnUse">
<stop stop-color="#0080FF" stop-opacity="0"/>
<stop offset="1" stop-color="#0080FF" stop-opacity="0.7"/>
</linearGradient>
<linearGradient id="paint136_linear_238_1066" x1="451.518" y1="663.882" x2="97.28" y2="1053.47" gradientUnits="userSpaceOnUse">
<stop stop-color="#0080FF" stop-opacity="0"/>
<stop offset="1" stop-color="#0080FF" stop-opacity="0.7"/>
</linearGradient>
<linearGradient id="paint137_linear_238_1066" x1="458.209" y1="668.275" x2="103.976" y2="1057.86" gradientUnits="userSpaceOnUse">
<stop stop-color="#0080FF" stop-opacity="0"/>
<stop offset="1" stop-color="#0080FF" stop-opacity="0.7"/>
</linearGradient>
<linearGradient id="paint138_linear_238_1066" x1="464.9" y1="672.666" x2="110.666" y2="1062.24" gradientUnits="userSpaceOnUse">
<stop stop-color="#0080FF" stop-opacity="0"/>
<stop offset="1" stop-color="#0080FF" stop-opacity="0.7"/>
</linearGradient>
<linearGradient id="paint139_linear_238_1066" x1="471.589" y1="677.058" x2="117.356" y2="1066.64" gradientUnits="userSpaceOnUse">
<stop stop-color="#0080FF" stop-opacity="0"/>
<stop offset="1" stop-color="#0080FF" stop-opacity="0.7"/>
</linearGradient>
<linearGradient id="paint140_linear_238_1066" x1="478.284" y1="681.449" x2="124.051" y2="1071.03" gradientUnits="userSpaceOnUse">
<stop stop-color="#0080FF" stop-opacity="0"/>
<stop offset="1" stop-color="#0080FF" stop-opacity="0.7"/>
</linearGradient>
<linearGradient id="paint141_linear_238_1066" x1="484.973" y1="685.839" x2="130.74" y2="1075.42" gradientUnits="userSpaceOnUse">
<stop stop-color="#0080FF" stop-opacity="0"/>
<stop offset="1" stop-color="#0080FF" stop-opacity="0.7"/>
</linearGradient>
<linearGradient id="paint142_linear_238_1066" x1="491.665" y1="690.237" x2="137.427" y2="1079.82" gradientUnits="userSpaceOnUse">
<stop stop-color="#0080FF" stop-opacity="0"/>
<stop offset="1" stop-color="#0080FF" stop-opacity="0.7"/>
</linearGradient>
<linearGradient id="paint143_linear_238_1066" x1="498.355" y1="694.628" x2="144.116" y2="1084.21" gradientUnits="userSpaceOnUse">
<stop stop-color="#0080FF" stop-opacity="0"/>
<stop offset="1" stop-color="#0080FF" stop-opacity="0.7"/>
</linearGradient>
<linearGradient id="paint144_linear_238_1066" x1="505.046" y1="699.018" x2="150.812" y2="1088.6" gradientUnits="userSpaceOnUse">
<stop stop-color="#0080FF" stop-opacity="0"/>
<stop offset="1" stop-color="#0080FF" stop-opacity="0.7"/>
</linearGradient>
<linearGradient id="paint145_linear_238_1066" x1="511.736" y1="703.41" x2="157.503" y2="1092.99" gradientUnits="userSpaceOnUse">
<stop stop-color="#0080FF" stop-opacity="0"/>
<stop offset="1" stop-color="#0080FF" stop-opacity="0.7"/>
</linearGradient>
<linearGradient id="paint146_linear_238_1066" x1="518.427" y1="707.804" x2="164.194" y2="1097.38" gradientUnits="userSpaceOnUse">
<stop stop-color="#0080FF" stop-opacity="0"/>
<stop offset="1" stop-color="#0080FF" stop-opacity="0.7"/>
</linearGradient>
<linearGradient id="paint147_linear_238_1066" x1="525.122" y1="712.194" x2="170.889" y2="1101.78" gradientUnits="userSpaceOnUse">
<stop stop-color="#0080FF" stop-opacity="0"/>
<stop offset="1" stop-color="#0080FF" stop-opacity="0.7"/>
</linearGradient>
<linearGradient id="paint148_linear_238_1066" x1="531.811" y1="716.589" x2="177.573" y2="1106.17" gradientUnits="userSpaceOnUse">
<stop stop-color="#0080FF" stop-opacity="0"/>
<stop offset="1" stop-color="#0080FF" stop-opacity="0.7"/>
</linearGradient>
<linearGradient id="paint149_linear_238_1066" x1="538.503" y1="720.98" x2="184.265" y2="1110.56" gradientUnits="userSpaceOnUse">
<stop stop-color="#0080FF" stop-opacity="0"/>
<stop offset="1" stop-color="#0080FF" stop-opacity="0.7"/>
</linearGradient>
<linearGradient id="paint150_linear_238_1066" x1="545.193" y1="725.37" x2="190.959" y2="1114.95" gradientUnits="userSpaceOnUse">
<stop stop-color="#0080FF" stop-opacity="0"/>
<stop offset="1" stop-color="#0080FF" stop-opacity="0.7"/>
</linearGradient>
</defs>
</svg>
