<?xml version="1.0" encoding="UTF-8" standalone="no"?><svg width="176" height="185" viewBox="0 0 176 185" fill="none" xmlns="http://www.w3.org/2000/svg">
<path fill-rule="evenodd" clip-rule="evenodd" d="M54.302 1C96.994 1 131.604 35.61 131.604 78.302C131.604 120.994 96.994 155.604 54.302 155.604C11.608 155.604 -23 120.994 -23 78.302C-23 35.61 11.608 1 54.302 1Z" stroke="url(#paint0_linear_238_1388)"/>
<path fill-rule="evenodd" clip-rule="evenodd" d="M59.146 4.18005C101.838 4.18005 136.448 38.7901 136.448 81.4821C136.448 124.176 101.838 158.786 59.146 158.786C16.452 158.786 -18.156 124.176 -18.156 81.4821C-18.156 38.7901 16.452 4.18005 59.146 4.18005Z" stroke="url(#paint1_linear_238_1388)"/>
<path fill-rule="evenodd" clip-rule="evenodd" d="M63.992 7.36304C106.684 7.36304 141.292 41.971 141.292 84.663C141.292 127.357 106.684 161.967 63.992 161.967C21.298 161.967 -13.31 127.357 -13.31 84.663C-13.31 41.971 21.298 7.36304 63.992 7.36304V7.36304Z" stroke="url(#paint2_linear_238_1388)"/>
<path fill-rule="evenodd" clip-rule="evenodd" d="M68.838 10.543C111.53 10.543 146.138 45.153 146.138 87.843C146.138 130.537 111.53 165.147 68.838 165.147C26.144 165.147 -8.464 130.537 -8.464 87.843C-8.464 45.153 26.144 10.543 68.838 10.543V10.543Z" stroke="url(#paint3_linear_238_1388)"/>
<path fill-rule="evenodd" clip-rule="evenodd" d="M73.682 13.723C116.374 13.723 150.982 48.333 150.982 91.023C150.982 133.717 116.374 168.327 73.682 168.327C30.988 168.327 -3.62 133.717 -3.62 91.023C-3.62 48.333 30.988 13.723 73.682 13.723V13.723Z" stroke="url(#paint4_linear_238_1388)"/>
<path fill-rule="evenodd" clip-rule="evenodd" d="M78.528 16.902C121.222 16.902 155.83 51.512 155.83 94.204C155.83 136.896 121.222 171.506 78.528 171.506C35.836 171.506 1.226 136.896 1.226 94.204C1.226 51.512 35.836 16.902 78.528 16.902V16.902Z" stroke="url(#paint5_linear_238_1388)"/>
<path fill-rule="evenodd" clip-rule="evenodd" d="M83.371 20.082C126.065 20.082 160.673 54.692 160.673 97.384C160.673 140.076 126.065 174.686 83.371 174.686C40.679 174.686 6.069 140.076 6.069 97.384C6.069 54.692 40.679 20.082 83.371 20.082V20.082Z" stroke="url(#paint6_linear_238_1388)"/>
<path fill-rule="evenodd" clip-rule="evenodd" d="M88.217 23.264C130.911 23.264 165.519 57.874 165.519 100.566C165.519 143.26 130.911 177.87 88.217 177.87C45.525 177.87 10.915 143.26 10.915 100.566C10.915 57.874 45.525 23.264 88.217 23.264V23.264Z" stroke="url(#paint7_linear_238_1388)"/>
<path fill-rule="evenodd" clip-rule="evenodd" d="M93.06 26.443C135.755 26.443 170.363 61.053 170.363 103.745C170.363 146.439 135.755 181.049 93.061 181.049C50.369 181.049 15.761 146.439 15.761 103.745C15.761 61.053 50.369 26.443 93.061 26.443H93.06Z" stroke="url(#paint8_linear_238_1388)"/>
<path fill-rule="evenodd" clip-rule="evenodd" d="M97.908 29.625C140.6 29.625 175.208 64.235 175.208 106.925C175.208 149.619 140.6 184.229 97.908 184.229C55.214 184.229 20.606 149.619 20.606 106.925C20.606 64.235 55.214 29.625 97.908 29.625V29.625Z" stroke="url(#paint9_linear_238_1388)"/>
<defs>
<linearGradient id="paint0_linear_238_1388" x1="123.957" y1="155.604" x2="-132.548" y2="437.707" gradientUnits="userSpaceOnUse">
<stop stop-color="#0080FF" stop-opacity="0"/>
<stop offset="1" stop-color="#0080FF" stop-opacity="0.7"/>
</linearGradient>
<linearGradient id="paint1_linear_238_1388" x1="128.801" y1="158.786" x2="-127.707" y2="440.889" gradientUnits="userSpaceOnUse">
<stop stop-color="#0080FF" stop-opacity="0"/>
<stop offset="1" stop-color="#0080FF" stop-opacity="0.7"/>
</linearGradient>
<linearGradient id="paint2_linear_238_1388" x1="133.645" y1="161.967" x2="-122.86" y2="444.067" gradientUnits="userSpaceOnUse">
<stop stop-color="#0080FF" stop-opacity="0"/>
<stop offset="1" stop-color="#0080FF" stop-opacity="0.7"/>
</linearGradient>
<linearGradient id="paint3_linear_238_1388" x1="138.491" y1="165.147" x2="-118.014" y2="447.247" gradientUnits="userSpaceOnUse">
<stop stop-color="#0080FF" stop-opacity="0"/>
<stop offset="1" stop-color="#0080FF" stop-opacity="0.7"/>
</linearGradient>
<linearGradient id="paint4_linear_238_1388" x1="143.335" y1="168.327" x2="-113.17" y2="450.427" gradientUnits="userSpaceOnUse">
<stop stop-color="#0080FF" stop-opacity="0"/>
<stop offset="1" stop-color="#0080FF" stop-opacity="0.7"/>
</linearGradient>
<linearGradient id="paint5_linear_238_1388" x1="148.183" y1="171.506" x2="-108.322" y2="453.609" gradientUnits="userSpaceOnUse">
<stop stop-color="#0080FF" stop-opacity="0"/>
<stop offset="1" stop-color="#0080FF" stop-opacity="0.7"/>
</linearGradient>
<linearGradient id="paint6_linear_238_1388" x1="153.026" y1="174.686" x2="-103.479" y2="456.789" gradientUnits="userSpaceOnUse">
<stop stop-color="#0080FF" stop-opacity="0"/>
<stop offset="1" stop-color="#0080FF" stop-opacity="0.7"/>
</linearGradient>
<linearGradient id="paint7_linear_238_1388" x1="157.872" y1="177.87" x2="-98.6364" y2="459.973" gradientUnits="userSpaceOnUse">
<stop stop-color="#0080FF" stop-opacity="0"/>
<stop offset="1" stop-color="#0080FF" stop-opacity="0.7"/>
</linearGradient>
<linearGradient id="paint8_linear_238_1388" x1="162.716" y1="181.049" x2="-93.7926" y2="463.149" gradientUnits="userSpaceOnUse">
<stop stop-color="#0080FF" stop-opacity="0"/>
<stop offset="1" stop-color="#0080FF" stop-opacity="0.7"/>
</linearGradient>
<linearGradient id="paint9_linear_238_1388" x1="167.561" y1="184.229" x2="-88.944" y2="466.329" gradientUnits="userSpaceOnUse">
<stop stop-color="#0080FF" stop-opacity="0"/>
<stop offset="1" stop-color="#0080FF" stop-opacity="0.7"/>
</linearGradient>
</defs>
</svg>
