<?xml version="1.0" encoding="UTF-8" standalone="no"?><svg width="351" height="34" viewBox="0 0 351 34" fill="none" xmlns="http://www.w3.org/2000/svg">
<path fill-rule="evenodd" clip-rule="evenodd" d="M0.58418 0.506083C0.213217 0.90478 0 1.51843 0 2.31582V30.6788C0 31.4762 0.213217 32.0899 0.598048 32.4747L0.698589 32.5596L16.5911 16.6672V16.3101L0.684721 0.421143L0.58418 0.506083V0.506083Z" fill="url(#paint0_linear_316_1118)"/>
<path fill-rule="evenodd" clip-rule="evenodd" d="M21.8781 21.9855L16.5771 16.6828V16.3119L21.8798 11.0092L21.9942 11.0802L28.2659 14.6443C30.0618 15.6566 30.0618 17.3242 28.2659 18.3504L21.9942 21.9145C21.9925 21.9145 21.8781 21.9855 21.8781 21.9855V21.9855Z" fill="url(#paint1_linear_316_1118)"/>
<path fill-rule="evenodd" clip-rule="evenodd" d="M21.9925 21.9144L16.5771 16.4973L0.584167 32.4903C1.16835 33.1178 2.15122 33.1889 3.25024 32.5753L21.9925 21.9144Z" fill="url(#paint2_linear_316_1118)"/>
<path fill-rule="evenodd" clip-rule="evenodd" d="M21.9925 11.0819L3.25024 0.434954C2.15296 -0.192561 1.16835 -0.107621 0.584167 0.519894L16.5754 16.4972L21.9925 11.0819Z" fill="url(#paint3_linear_316_1118)"/>
<path opacity="0.2" fill-rule="evenodd" clip-rule="evenodd" d="M21.8782 21.7999L3.26416 32.3758C2.22408 32.9738 1.29667 32.9322 0.698625 32.3897L0.598083 32.4902L0.698625 32.5752C1.29667 33.116 2.22408 33.1593 3.26416 32.5613L22.0065 21.9143L21.8782 21.7999V21.7999Z" fill="black"/>
<path opacity="0.12" fill-rule="evenodd" clip-rule="evenodd" d="M28.2642 18.1648L21.8643 21.7999L21.9787 21.9143L28.2504 18.3503C29.1483 17.8372 29.5903 17.1681 29.5903 16.4972C29.5331 17.1108 29.0772 17.695 28.2642 18.1648V18.1648Z" fill="black"/>
<path opacity="0.25" fill-rule="evenodd" clip-rule="evenodd" d="M3.25026 0.620438L28.2642 14.8314C29.0772 15.2873 29.5331 15.8854 29.6042 16.499C29.6042 15.8299 29.1622 15.159 28.2642 14.6459L3.25026 0.434957C1.45438 -0.591257 0 0.263344 0 2.31577V2.50125C0 0.448825 1.45438 -0.391908 3.25026 0.620438Z" fill="white"/>
<path fill-rule="evenodd" clip-rule="evenodd" d="M49.6163 15.5976C49.6163 11.0542 53.4351 7.35498 57.9786 7.35498C60.4904 7.35498 62.2776 8.34132 63.6262 9.62583L62.0384 11.2137C61.0745 10.3088 59.7675 9.60676 57.9768 9.60676C54.659 9.60676 52.0657 12.278 52.0657 15.5959C52.0657 18.9138 54.659 21.5885 57.9751 21.5885C60.1263 21.5885 61.3502 20.7252 62.1354 19.9382C62.7785 19.2951 63.1998 18.3712 63.3627 17.104H57.9786V14.8574H65.5573C65.637 15.2596 65.6786 15.7415 65.6786 16.2633C65.6786 17.9499 65.2158 20.0422 63.7268 21.5313C62.2776 23.0394 60.4297 23.8437 57.9768 23.8437C53.4317 23.8437 49.6129 20.148 49.6129 15.6011L49.6163 15.5976ZM71.8047 13.2262C68.87 13.2262 66.4743 15.459 66.4743 18.5324C66.4743 21.5902 68.8682 23.8385 71.8047 23.8385C74.7412 23.8385 77.1317 21.5868 77.1317 18.5307C77.1317 15.4572 74.7395 13.2245 71.8047 13.2262V13.2262ZM71.8047 21.7514C70.1978 21.7514 68.8093 20.4253 68.8093 18.5341C68.8093 16.6238 70.1961 15.3168 71.8047 15.3168C73.4116 15.3168 74.7984 16.6221 74.7984 18.5341C74.7984 20.4236 73.4134 21.7514 71.8047 21.7514ZM83.4276 13.2262C80.4929 13.2262 78.1007 15.459 78.1007 18.5324C78.1007 21.5902 80.4929 23.8385 83.4276 23.8385C86.3624 23.8385 88.7546 21.5868 88.7546 18.5307C88.7546 15.4572 86.3641 13.2245 83.4276 13.2262V13.2262ZM83.4276 21.7514C81.8207 21.7514 80.4322 20.4253 80.4322 18.5341C80.4322 16.6238 81.819 15.3168 83.4276 15.3168C85.0345 15.3168 86.423 16.6221 86.423 18.5341C86.423 20.4236 85.0345 21.7514 83.4276 21.7514ZM97.6923 13.5487V14.4119H97.6126C97.0908 13.7862 96.0854 13.2245 94.82 13.2245C92.166 13.2245 89.7305 15.5578 89.7305 18.5549C89.7305 21.5278 92.1643 23.842 94.82 23.842C96.0854 23.842 97.0908 23.2804 97.6126 22.6373H97.6923V23.4C97.6923 25.4299 96.6072 26.5168 94.8581 26.5168C93.4297 26.5168 92.5457 25.4905 92.1834 24.629L90.1517 25.4732C90.7342 26.8791 92.2839 28.6091 94.8564 28.6091C97.5883 28.6091 99.9008 26.9987 99.9008 23.0793V13.5469L97.6923 13.5487ZM95.0193 21.7514C93.4124 21.7514 92.062 20.4028 92.062 18.5549C92.062 16.6862 93.4107 15.3185 95.0193 15.3185C96.6072 15.3185 97.8535 16.6845 97.8535 18.5549C97.8553 20.4028 96.6089 21.7514 95.0193 21.7514ZM101.511 7.91836H103.844V23.5196H101.511V7.91836ZM110.239 21.7514C109.053 21.7514 108.208 21.2071 107.668 20.1445L114.765 17.2063L114.521 16.603C114.081 15.4191 112.732 13.2262 109.977 13.2262C107.244 13.2262 104.971 15.3775 104.971 18.5341C104.971 21.507 107.223 23.8403 110.239 23.8403C112.673 23.8403 114.081 22.3547 114.663 21.488L112.853 20.2832C112.248 21.169 111.423 21.7532 110.239 21.7514V21.7514ZM110.057 15.2769C110.981 15.2769 111.765 15.7398 112.026 16.402L107.28 18.3729C107.221 16.3222 108.87 15.2769 110.057 15.2769V15.2769Z" fill="white"/>
<path fill-rule="evenodd" clip-rule="evenodd" d="M125.003 7.91846H119.425V23.5197H121.753V17.6103H125.005C127.586 17.6103 130.124 15.7416 130.124 12.7635C130.124 9.7906 127.588 7.92019 125.008 7.92019L125.003 7.91846ZM125.064 15.4382H121.753V10.0888H125.064C126.804 10.0888 127.796 11.5327 127.796 12.7635C127.796 13.9735 126.804 15.4382 125.064 15.4382V15.4382ZM133.735 23.5197V7.91846H131.407V23.5197H133.735ZM144.193 23.4919V17.5115C144.193 14.7414 142.123 13.1969 139.452 13.1969C137.769 13.1969 136.023 13.9405 135.3 15.5856L137.366 16.4471C137.808 15.5856 138.63 15.303 139.495 15.303C140.698 15.303 141.922 16.0259 141.941 17.3121V17.4733C141.52 17.2324 140.618 16.8701 139.512 16.8701C137.285 16.8701 135.018 18.0939 135.018 20.3821C135.018 22.4709 136.845 23.8144 138.892 23.8144C140.459 23.8144 141.32 23.1123 141.861 22.2906H141.941V23.4954H144.191L144.193 23.4919ZM139.174 21.7481C138.412 21.7481 137.347 21.3667 137.347 20.4254C137.347 19.2207 138.673 18.7561 139.817 18.7561C140.842 18.7561 141.322 18.9762 141.946 19.2779C141.768 20.6785 140.584 21.7307 139.174 21.7481V21.7481ZM152.38 13.5384L149.71 20.3006H149.631L146.861 13.5384H144.352L148.506 22.9927L146.136 28.2503H148.565L154.966 13.5384H152.38Z" fill="white"/>
<line x1="173.966" y1="31" x2="173.966" y2="3" stroke="#12212B" stroke-width="2" stroke-linecap="round"/>
<path d="M221.3 1H201.632C197.949 1 194.966 3.98238 194.966 7.666V27.3381C194.966 31.0176 197.949 34 201.632 34H221.304C224.984 34 227.97 31.0176 227.97 27.334V7.666C227.966 3.98238 224.984 1 221.3 1Z" fill="url(#paint4_linear_316_1118)"/>
<path d="M211.326 8.58172L211.994 7.42672C212.407 6.70485 213.327 6.46147 214.049 6.87397C214.77 7.28647 215.014 8.20635 214.601 8.92822L208.162 20.074H212.819C214.329 20.074 215.175 21.8477 214.519 23.077H200.865C200.032 23.077 199.364 22.4087 199.364 21.5755C199.364 20.7422 200.032 20.074 200.865 20.074H204.693L209.594 11.5806L208.063 8.9241C207.651 8.20222 207.894 7.2906 208.616 6.86985C209.338 6.45735 210.249 6.70072 210.67 7.4226L211.326 8.58172ZM205.535 24.6238L204.091 27.1277C203.678 27.8496 202.758 28.093 202.037 27.6805C201.315 27.268 201.071 26.3481 201.484 25.6262L202.556 23.77C203.769 23.3946 204.755 23.6833 205.535 24.6238V24.6238ZM217.967 20.0822H221.874C222.707 20.0822 223.375 20.7505 223.375 21.5837C223.375 22.417 222.707 23.0852 221.874 23.0852H219.704L221.168 25.6262C221.581 26.3481 221.337 27.2597 220.616 27.6805C219.894 28.093 218.982 27.8496 218.561 27.1277C216.095 22.8501 214.242 19.6491 213.013 17.5165C211.755 15.3467 212.654 13.1687 213.541 12.4303C214.527 14.1216 216 16.675 217.967 20.0822V20.0822Z" fill="white"/>
<path d="M258.684 19.6092H252.245L250.698 24.1754H247.97L254.07 7.28161H256.904L263.003 24.1754H260.229L258.684 19.6092ZM252.911 17.5021H258.016L255.499 10.0916H255.429L252.911 17.5021ZM276.176 18.0177C276.176 21.8451 274.127 24.3042 271.035 24.3042C270.252 24.3452 269.473 24.1648 268.788 23.7837C268.103 23.4026 267.538 22.8362 267.16 22.1493H267.101V28.25H264.573V11.8585H267.021V13.9072H267.067C267.463 13.2236 268.037 12.6601 268.727 12.2767C269.418 11.8932 270.199 11.7042 270.989 11.7297C274.115 11.7297 276.176 14.2009 276.176 18.0177ZM273.577 18.0177C273.577 15.524 272.288 13.8846 270.322 13.8846C268.39 13.8846 267.091 15.5584 267.091 18.0176C267.091 20.4994 268.39 22.1614 270.322 22.1614C272.288 22.1614 273.577 20.5341 273.577 18.0177ZM289.732 18.0177C289.732 21.8451 287.683 24.3042 284.592 24.3042C283.809 24.3452 283.03 24.1648 282.344 23.7837C281.659 23.4026 281.095 22.8362 280.716 22.1493H280.658V28.25H278.13V11.8585H280.577V13.9072H280.623C281.019 13.2236 281.593 12.6601 282.284 12.2767C282.974 11.8932 283.756 11.7042 284.545 11.7297C287.671 11.7297 289.732 14.2009 289.732 18.0177ZM287.133 18.0177C287.133 15.524 285.845 13.8846 283.878 13.8846C281.947 13.8846 280.647 15.5584 280.647 18.0176C280.647 20.4994 281.947 22.1614 283.878 22.1614C285.845 22.1614 287.133 20.5341 287.133 18.0177ZM298.692 19.4684C298.879 21.1437 300.506 22.2437 302.73 22.2437C304.861 22.2437 306.395 21.1437 306.395 19.6331C306.395 18.3217 305.47 17.5366 303.281 16.9986L301.091 16.4712C297.989 15.7218 296.549 14.2711 296.549 11.9169C296.549 9.002 299.089 7 302.696 7C306.266 7 308.713 9.002 308.795 11.9169H306.243C306.09 10.231 304.697 9.21328 302.66 9.21328C300.623 9.21328 299.23 10.243 299.23 11.7415C299.23 12.936 300.12 13.6387 302.297 14.1767L304.159 14.6338C307.625 15.4534 309.065 16.8458 309.065 19.3168C309.065 22.4774 306.547 24.457 302.543 24.457C298.796 24.457 296.267 22.5238 296.104 19.4683L298.692 19.4684ZM314.521 8.94378V11.8585H316.863V13.8606H314.521V20.6508C314.521 21.7057 314.99 22.1972 316.02 22.1972C316.298 22.1923 316.575 22.1728 316.851 22.1387V24.129C316.389 24.2154 315.918 24.2545 315.447 24.2457C312.954 24.2457 311.981 23.3092 311.981 20.9204V13.8606H310.19V11.8585H311.981V8.94378H314.521ZM318.22 18.0177C318.22 14.1422 320.502 11.7071 324.062 11.7071C327.633 11.7071 329.904 14.1422 329.904 18.0177C329.904 21.9036 327.645 24.3282 324.061 24.3282C320.48 24.3282 318.22 21.9036 318.22 18.0177ZM327.328 18.0177C327.328 15.3593 326.11 13.7902 324.061 13.7902C322.013 13.7902 320.796 15.3711 320.796 18.0177C320.796 20.6867 322.013 22.2437 324.061 22.2437C326.11 22.2437 327.328 20.6867 327.328 18.0177ZM331.989 11.8585H334.4V13.9549H334.459C334.622 13.3001 335.005 12.7215 335.545 12.3163C336.084 11.911 336.747 11.7039 337.421 11.7297C337.713 11.7286 338.003 11.7603 338.288 11.8239V14.1888C337.92 14.0764 337.536 14.0248 337.152 14.036C336.784 14.0211 336.418 14.0858 336.078 14.2258C335.738 14.3658 335.433 14.5776 335.183 14.8469C334.932 15.1161 334.743 15.4363 334.628 15.7855C334.513 16.1346 334.476 16.5045 334.517 16.8698V24.1754H331.989V11.8585ZM349.944 20.5577C349.604 22.7937 347.426 24.3282 344.641 24.3282C341.058 24.3282 338.833 21.9276 338.833 18.076C338.833 14.2127 341.069 11.7071 344.534 11.7071C347.942 11.7071 350.085 14.048 350.085 17.7825V18.6487H341.386V18.8014C341.345 19.2547 341.402 19.7114 341.552 20.1411C341.702 20.5707 341.942 20.9636 342.255 21.2936C342.568 21.6236 342.948 21.8831 343.37 22.0549C343.791 22.2268 344.244 22.307 344.699 22.2902C345.296 22.3462 345.896 22.2079 346.409 21.8957C346.921 21.5836 347.319 21.1143 347.543 20.5577H349.944ZM341.398 16.8817H347.555C347.578 16.4741 347.516 16.0663 347.374 15.6837C347.231 15.3011 347.011 14.9521 346.728 14.6586C346.444 14.365 346.103 14.1333 345.725 13.9779C345.348 13.8225 344.942 13.7468 344.534 13.7556C344.123 13.7532 343.714 13.8323 343.333 13.9884C342.952 14.1445 342.606 14.3745 342.315 14.6651C342.023 14.9558 341.792 15.3013 341.634 15.6817C341.477 16.0622 341.397 16.47 341.398 16.8817Z" fill="white"/>
<defs>
<linearGradient id="paint0_linear_316_1118" x1="15.164" y1="2.01095" x2="-10.293" y2="8.79399" gradientUnits="userSpaceOnUse">
<stop stop-color="#00A0FF"/>
<stop offset="0.007" stop-color="#00A1FF"/>
<stop offset="0.26" stop-color="#00BEFF"/>
<stop offset="0.512" stop-color="#00D2FF"/>
<stop offset="0.76" stop-color="#00DFFF"/>
<stop offset="1" stop-color="#00E3FF"/>
</linearGradient>
<linearGradient id="paint1_linear_316_1118" x1="30.6029" y1="16.4981" x2="-0.436508" y2="16.4981" gradientUnits="userSpaceOnUse">
<stop stop-color="#FFE000"/>
<stop offset="0.409" stop-color="#FFBD00"/>
<stop offset="0.775" stop-color="#FFA500"/>
<stop offset="1" stop-color="#FF9C00"/>
</linearGradient>
<linearGradient id="paint2_linear_316_1118" x1="19.0478" y1="19.4443" x2="-1.38918" y2="53.8409" gradientUnits="userSpaceOnUse">
<stop stop-color="#FF3A44"/>
<stop offset="1" stop-color="#C31162"/>
</linearGradient>
<linearGradient id="paint3_linear_316_1118" x1="-3.44166" y1="-8.92887" x2="5.67585" y2="6.43322" gradientUnits="userSpaceOnUse">
<stop stop-color="#32A071"/>
<stop offset="0.069" stop-color="#2DA771"/>
<stop offset="0.476" stop-color="#15CF74"/>
<stop offset="0.801" stop-color="#06E775"/>
<stop offset="1" stop-color="#00F076"/>
</linearGradient>
<linearGradient id="paint4_linear_316_1118" x1="211.466" y1="1" x2="211.466" y2="34" gradientUnits="userSpaceOnUse">
<stop stop-color="#0ED4FC"/>
<stop offset="1" stop-color="#0C57EF"/>
</linearGradient>
</defs>
</svg>
