<?xml version="1.0" encoding="UTF-8" standalone="no"?><svg width="30" height="30" viewBox="0 0 30 30" fill="none" xmlns="http://www.w3.org/2000/svg">
<path opacity="0.4" d="M25.45 15.9125C24.9875 15.9125 24.6 15.5625 24.55 15.1C24.25 12.35 22.775 9.87497 20.5 8.29997C20.0875 8.01247 19.9875 7.44997 20.275 7.03747C20.5625 6.62497 21.125 6.52497 21.5375 6.81247C24.25 8.69997 26 11.65 26.3625 14.9125C26.4125 15.4125 26.05 15.8625 25.55 15.9125C25.5125 15.9125 25.4875 15.9125 25.45 15.9125Z" fill="white"/>
<path opacity="0.4" d="M4.67499 15.975C4.64999 15.975 4.61249 15.975 4.58749 15.975C4.08749 15.925 3.72499 15.475 3.77499 14.975C4.11249 11.7125 5.83749 8.76251 8.52499 6.86251C8.92499 6.57501 9.49999 6.67501 9.78749 7.07501C10.075 7.48751 9.97499 8.05001 9.57499 8.33751C7.32499 9.93751 5.86249 12.4125 5.58749 15.15C5.53749 15.625 5.13749 15.975 4.67499 15.975Z" fill="white"/>
<path opacity="0.4" d="M19.9875 26.3749C18.45 27.1124 16.8 27.4874 15.075 27.4874C13.275 27.4874 11.5625 27.0874 9.9625 26.2749C9.5125 26.0624 9.3375 25.5124 9.5625 25.0624C9.775 24.6124 10.325 24.4374 10.775 24.6499C11.5625 25.0499 12.4 25.3249 13.25 25.4874C14.4 25.7124 15.575 25.7249 16.725 25.5249C17.575 25.3749 18.4125 25.1124 19.1875 24.7374C19.65 24.5249 20.2 24.6999 20.4 25.1624C20.625 25.6124 20.45 26.1624 19.9875 26.3749Z" fill="white"/>
<path d="M15.0625 2.5127C13.125 2.5127 11.5375 4.0877 11.5375 6.0377C11.5375 7.9877 13.1125 9.5627 15.0625 9.5627C17.0125 9.5627 18.5875 7.9877 18.5875 6.0377C18.5875 4.0877 17.0125 2.5127 15.0625 2.5127Z" fill="white"/>
<path d="M6.31251 17.3374C4.37501 17.3374 2.78751 18.9124 2.78751 20.8624C2.78751 22.8124 4.36251 24.3874 6.31251 24.3874C8.26251 24.3874 9.83751 22.8124 9.83751 20.8624C9.83751 18.9124 8.25001 17.3374 6.31251 17.3374Z" fill="white"/>
<path d="M23.6875 17.3374C21.75 17.3374 20.1625 18.9124 20.1625 20.8624C20.1625 22.8124 21.7375 24.3874 23.6875 24.3874C25.6375 24.3874 27.2125 22.8124 27.2125 20.8624C27.2125 18.9124 25.6375 17.3374 23.6875 17.3374Z" fill="white"/>
</svg>
