<?xml version="1.0" encoding="UTF-8" standalone="no"?><svg width="30" height="30" viewBox="0 0 30 30" fill="none" xmlns="http://www.w3.org/2000/svg">
<path opacity="0.4" d="M26.875 10.4625V19.775C26.875 19.9625 26.8125 20.15 26.65 20.3125C24.8375 22.1375 21.6125 25.3875 19.7625 27.25C19.6 27.425 19.3875 27.5 19.175 27.5H9.2125C5.85 27.5 3.125 24.775 3.125 21.4125V10.4625C3.125 7.1 5.85 4.375 9.2125 4.375H20.7875C24.15 4.375 26.875 7.1 26.875 10.4625Z" fill="white"/>
<path d="M10.3625 7.8625C9.83749 7.8625 9.42499 7.4375 9.42499 6.925V3.4375C9.42499 2.925 9.83749 2.5 10.3625 2.5C10.8875 2.5 11.3 2.925 11.3 3.4375V6.9125C11.3 7.4375 10.8875 7.8625 10.3625 7.8625Z" fill="white"/>
<path d="M19.6375 7.8625C19.1125 7.8625 18.7 7.4375 18.7 6.925V3.4375C18.7 2.9125 19.125 2.5 19.6375 2.5C20.1625 2.5 20.575 2.925 20.575 3.4375V6.9125C20.575 7.4375 20.1625 7.8625 19.6375 7.8625Z" fill="white"/>
<path d="M18.475 15.8875H9.20001C8.67501 15.8875 8.26251 15.4625 8.26251 14.95C8.26251 14.4375 8.68751 14.0125 9.20001 14.0125H18.475C19 14.0125 19.4125 14.4375 19.4125 14.95C19.4125 15.4625 19 15.8875 18.475 15.8875Z" fill="white"/>
<path d="M15 20.5249H9.20001C8.67501 20.5249 8.26251 20.0999 8.26251 19.5874C8.26251 19.0624 8.68751 18.6499 9.20001 18.6499H15C15.525 18.6499 15.9375 19.0749 15.9375 19.5874C15.9375 20.0999 15.525 20.5249 15 20.5249Z" fill="white"/>
<path d="M26.875 19.7751C26.875 19.9626 26.8125 20.1501 26.65 20.3126C24.8375 22.1376 21.6125 25.3876 19.7625 27.2501C19.6 27.4251 19.3875 27.5001 19.175 27.5001C18.7625 27.5001 18.3625 27.1751 18.3625 26.7001V22.3251C18.3625 20.5001 19.9125 18.9876 21.8125 18.9876C23 18.9751 24.65 18.9751 26.0625 18.9751C26.55 18.9751 26.875 19.3626 26.875 19.7751Z" fill="white"/>
</svg>
