<?xml version="1.0" encoding="UTF-8" standalone="no"?><svg width="30" height="30" viewBox="0 0 30 30" fill="none" xmlns="http://www.w3.org/2000/svg">
<path d="M27.9494 6.44063C27.765 6.25 27.4812 6.19562 27.2394 6.30687L27.1369 6.35375C27.05 6.39375 26.9631 6.43375 26.8756 6.47313C27.13 6.0675 27.3319 5.63375 27.4712 5.185C27.5487 4.9375 27.4644 4.66688 27.2594 4.50687C27.0544 4.34687 26.7719 4.33 26.55 4.46562C25.8369 4.89875 25.1519 5.21063 24.4437 5.42813C23.375 4.39125 21.9194 3.75 20.3125 3.75C17.0331 3.75 14.375 6.40812 14.375 9.6875C14.375 9.69063 14.375 9.81437 14.375 10L13.7506 9.95C7.67374 9.23125 5.94374 5.14375 5.87186 4.9675C5.75561 4.67375 5.49936 4.45938 5.18999 4.395C4.88124 4.32938 4.56061 4.42625 4.33686 4.64938C4.21311 4.77375 3.12498 5.925 3.12498 8.125C3.12498 9.6925 3.82374 10.9638 4.72811 11.9525C4.30686 11.6956 4.06123 11.4875 4.05499 11.4819C3.76686 11.2306 3.35436 11.1781 3.01186 11.3519C2.67061 11.5262 2.46936 11.8906 2.50374 12.2725C2.51561 12.4044 2.78186 14.9056 5.67124 16.7944L5.14436 16.89C4.82499 16.9481 4.55811 17.1675 4.43936 17.47C4.32124 17.7731 4.36749 18.115 4.56249 18.375C4.62811 18.4631 5.84874 20.05 8.49936 20.9625C7.08374 21.4344 5.13874 21.875 2.81249 21.875C2.44498 21.875 2.11061 22.09 1.95873 22.425C1.80623 22.76 1.86436 23.1531 2.10686 23.4294C2.20748 23.545 4.64686 26.25 10.9375 26.25C21.3831 26.25 26.25 16.5531 26.25 10V9.6875C26.25 9.595 26.24 9.50437 26.2362 9.41313C27.5437 8.14937 28.0356 7.20125 28.0594 7.15437C28.1775 6.91687 28.1337 6.63063 27.9494 6.44063Z" fill="white"/>
</svg>
